<?xml version="1.0" encoding="UTF-8" standalone="no"?>
<!-- Created with Inkscape (http://www.inkscape.org/) -->
<svg xmlns:rdf="http://www.w3.org/1999/02/22-rdf-syntax-ns#" xmlns="http://www.w3.org/2000/svg" xml:space="preserve" height="720" width="595" version="1.1" xmlns:cc="http://creativecommons.org/ns#" xmlns:dc="http://purl.org/dc/elements/1.1/"><metadata><rdf:RDF><cc:Work rdf:about=""><dc:format>image/svg+xml</dc:format><dc:type rdf:resource="http://purl.org/dc/dcmitype/StillImage"/><dc:title/></cc:Work></rdf:RDF></metadata><defs><clipPath id="clipPath2999" clipPathUnits="userSpaceOnUse"><path d="m263.97,526.01c-5.33-0.49-11.27-4.39-17-5-1.329-0.147-2.841,0.196-4.335,0.538-1.676,0.384-3.328,0.769-4.665,0.462-4.8-1.11-9.37-6.57-15.999-9-6.101-2.24-13.071-2.27-18-5.001-7.1-3.94-13.56-12.98-20-20-13.68-14.9-19.97-30.14-28-50.99-6.91-17.95-15.089-33.37-13-61,1.12-14.71,5.839-28.48,11-38.99,4.94-10.07,16.64-20.5,18-32,0.88-7.47-3.41-14.69-2-21.99,1.58-8.21,10.31-10.82,12-20-17.52-10.22-36.43-14.959-54-22-52.72-21.13-89.39-62.3-127.98-98.99v-141.98h361.95c-0.92,30.52-5.29,73.23-8.99,106.99-2.6,23.6-3.97,42.17-16,54.989,4.83,5.23,6.84,11.681,10,17.001,8.56,14.44,21.78,33.68,41.99,36.99,3.178,0.524,6.523,0.281,9.84,0.039,3.133-0.228,6.241-0.457,9.16-0.039,14.73,2.12,31.08,15.41,29,35-0.69,6.46-5.33,8.79-5.999,15-0.811,7.36,4.359,18.12,3.999,30-0.17,5.37-2.64,12.3-2,14.99,1.82,7.691,11.95,5.711,12.99,15.999,1.89,18.591-30.64,22.861-33.99,42.001-1.65,9.42,3.97,18.06,4,26.99,0.02,6.54-3.86,12.5-7,22,0.191,1.365,1.545,0.83,3.029,0.296,1.614-0.581,3.382-1.162,3.971,0.704,2.64,3.69-0.64,13.299,2,17,4.245,0.599,6.369-0.925,8.493-2.448,1.952-1.401,3.905-2.801,7.507-2.552-1.28,9.56-6.761,14.93-11.78,20.75-2.11,1.23-3.8,2.47-5.25,3.84-0.6,0.57-0.63,1.52-0.06,2.12s1.52,0.63,2.12,0.06c1.4-1.32,3.1-2.54,5.28-3.77h0.69c-6.49,15.51-18.03,25.96-36,29.99-0.749,3.42,4.06,1.27,3,5-6.48,3.47-22.56,1.71-18,13-26.869,0.12-47.58,6.41-56.99,24-7.4-2.82-5.69-4.36-12-5-6.67-0.679-14.56,2.1-20,3-6.076,0.995-11.595,2.161-17.372,2.161-1.192,0-2.397-0.049-3.618-0.161"/></clipPath><clipPath id="clipPath3007" clipPathUnits="userSpaceOnUse"><path d="m6,523.27,445.94,0v-519.27h-445.94v519.27z"/></clipPath><clipPath id="clipPath4581" clipPathUnits="userSpaceOnUse"><path d="m0,526.17,446.02,0,0-526.1-446.02,0v526.1z"/></clipPath><clipPath id="clipPath4597" clipPathUnits="userSpaceOnUse"><path d="m0,525.93,445.94,0v-525.93h-445.94v525.93z"/></clipPath></defs><g transform="matrix(1.25,0,0,-1.25,0,720)"><g clip-path="url(#clipPath2999)"><g opacity="0.5" clip-path="url(#clipPath3007)"><g transform="translate(288.9648,522.2734)"><path fill-rule="evenodd" fill="#8dc9e3" d="M0,0,1,0,2,0c0.22-0.779,0.837-1.162,2-1-0.169-1.165-1.581-1.085-3-1,0.003,1.003-0.81,1.19-1,2"/></g><g transform="translate(400.9507,432.2847)"><path fill-rule="evenodd" fill="#30a5d2" d="M0,0,20.998,0c-7.781-1.578-23.616-1.274-31.997-1-18.866,0.619-0.572,1.258,10.999,1"/></g><g transform="translate(392.9517,419.2861)"><path fill-rule="evenodd" fill="#30a5d2" d="M0,0c7.673,2.326,19.659,0.339,28.997,1-7.674-2.325-19.659-0.339-28.997-1"/></g><g transform="translate(152.9814,407.2881)"><path fill-rule="evenodd" fill="#30a5d2" d="M0,0c4.681,2.318,13.654,0.344,19.998,1h20.997,40.995,81.99c-52.66-2.333-109.65-0.334-163.98-1"/></g><g transform="translate(401.9507,401.2886)"><path fill-rule="evenodd" fill="#30a5d2" d="M0,0c3.687,2.313,11.65,0.349,16.998,1-3.687-2.313-11.65-0.348-16.998-1"/></g><g transform="translate(307.9624,372.2925)"><path fill-rule="evenodd" fill="#30a5d2" d="M0,0"/></g><g transform="translate(384.9526,371.2925)"><path fill-rule="evenodd" fill="#30a5d2" d="M0,0c2.366,2.3,8.974,0.358,12.999,1-2.367-2.3-8.975-0.358-12.999-1"/></g><g transform="translate(291.9644,365.293)"><path fill-rule="evenodd" fill="#30a5d2" d="M0,0c0.431,2.236,4.928,0.405,6.999,1-0.431-2.235-4.928-0.405-6.999-1"/></g><g transform="translate(302.9629,365.293)"><path fill-rule="evenodd" fill="#30a5d2" d="M0,0c0.125,2.208,4.241,0.425,5.999,1-0.124-2.208-4.241-0.424-5.999-1"/></g><g transform="translate(293.9639,359.2939)"><path fill-rule="evenodd" fill="#30a5d2" d="M0,0c3.687,2.313,11.65,0.349,16.998,1-3.686-2.313-11.65-0.349-16.998-1"/></g><g transform="translate(153.9814,353.2949)"><path fill-rule="evenodd" fill="#30a5d2" d="m0,0c8.006,2.326,20.326,0.338,29.996,1h30.996,60.993c-38.657-2.333-81.651-0.334-121.98-1"/></g><path fill-rule="evenodd" fill="#3ca9d4" d="m290.96,354.29,4,0,0-1-4,0,0,1z"/><g transform="translate(294.9639,353.2949)"><path fill-rule="evenodd" fill="#30a5d2" d="M0,0,0,1c4.354-0.646,11.303,1.304,13.998-1h-13.998z"/></g><g transform="translate(302.9629,336.2969)"><path fill-rule="evenodd" fill="#30a5d2" d="M0,0"/></g><g transform="translate(174.979,311.2998)"><path fill-rule="evenodd" fill="#30a5d2" d="M0,0c8.339,2.327,20.992,0.338,30.996,1h30.996c-18.666-2.332-41.66-0.334-61.992-1"/></g><g transform="translate(348.957,191.3149)"><path fill-rule="evenodd" fill="#30a5d2" d="M0,0c2.366,2.3,8.974,0.358,12.999,1-2.367-2.3-8.975-0.358-12.999-1"/></g><g transform="translate(345.9575,185.3154)"><path fill-rule="evenodd" fill="#30a5d2" d="M0,0c2.038,2.295,8.304,0.362,11.999,1-2.039-2.294-8.304-0.362-11.999-1"/></g><g transform="translate(6,173.3174)"><path fill-rule="evenodd" fill="#30a5d2" d="M0,0,0,1,262.97,1c-85.66-2.333-175.65-0.333-262.97-1"/></g><g transform="translate(6,167.3179)"><path fill-rule="evenodd" fill="#30a5d2" d="M0,0,0,1,263.97,1c-85.99-2.333-176.32-0.333-263.97-1"/></g><g transform="translate(339.958,167.3179)"><path fill-rule="evenodd" fill="#30a5d2" d="M0,0c1.064,2.27,6.286,0.381,8.999,1-1.063-2.269-6.285-0.381-8.999-1"/></g><g transform="translate(6,161.3188)"><path fill-rule="evenodd" fill="#30a5d2" d="M0,0,0,1,264.97,1c-86.32-2.333-176.98-0.333-264.97-1"/></g><g transform="translate(6,155.3193)"><path fill-rule="evenodd" fill="#30a5d2" d="M0,0,0,1,265.97,1c-86.66-2.333-177.65-0.333-265.97-1"/></g><g transform="translate(6,149.3203)"><path fill-rule="evenodd" fill="#30a5d2" d="M0,0,0,1,266.97,1c-86.99-2.333-178.31-0.333-266.97-1"/></g><g transform="translate(6,143.3208)"><path fill-rule="evenodd" fill="#30a5d2" d="M0,0,0,1,268.97,1c-87.66-2.333-179.65-0.333-268.97-1"/></g><g transform="translate(6,137.3218)"><path fill-rule="evenodd" fill="#30a5d2" d="M0,0,0,1,271.97,1c-88.66-2.333-181.65-0.333-271.97-1"/></g><g transform="translate(6,119.3237)"><path fill-rule="evenodd" fill="#30a5d2" d="M0,0,0,1,352.96,1c-115.66-2.333-235.64-0.333-352.96-1"/></g><g transform="translate(6,113.3247)"><path fill-rule="evenodd" fill="#30a5d2" d="M0,0,0,1,353.96,1c-115.99-2.333-236.31-0.333-353.96-1"/></g><g transform="translate(6,95.3271)"><path fill-rule="evenodd" fill="#30a5d2" d="M0,0,0,1,355.96,1c-116.66-2.333-237.64-0.333-355.96-1"/></g><g transform="translate(6,83.3286)"><path fill-rule="evenodd" fill="#30a5d2" d="M0,0,0,1,356.96,1c-116.99-2.333-238.31-0.333-356.96-1"/></g><g transform="translate(6,77.3291)"><path fill-rule="evenodd" fill="#30a5d2" d="M0,0,0,1,357.96,1c-117.32-2.333-238.98-0.333-357.96-1"/></g><g transform="translate(6,59.3315)"><path fill-rule="evenodd" fill="#30a5d2" d="M0,0,0,1,359.96,1c-117.99-2.333-240.31-0.333-359.96-1"/></g><g transform="translate(6,53.332)"><path fill-rule="evenodd" fill="#30a5d2" d="M0,0,0,1,359.96,1c-117.99-2.333-240.31-0.333-359.96-1"/></g><g transform="translate(6,47.333)"><path fill-rule="evenodd" fill="#30a5d2" d="M0,0,0,1,360.96,1c-118.32-2.333-240.98-0.333-360.96-1"/></g><g transform="translate(6,29.335)"><path fill-rule="evenodd" fill="#30a5d2" d="M0,0,0,1,362.96,1c-118.99-2.333-242.31-0.333-362.96-1"/></g><g transform="translate(6,11.3374)"><path fill-rule="evenodd" fill="#30a5d2" d="M0,0,0,1,364.96,1c-119.66-2.333-243.64-0.333-364.96-1"/></g><g transform="translate(6,5.3384)"><path fill-rule="evenodd" fill="#30a5d2" d="M0,0,0,1,365.95,1c-119.98-2.333-244.3-0.333-365.95-1"/></g><g transform="translate(368.9546,37.334)"><path fill-rule="evenodd" fill="#add8ea" d="m0,0,0,1c2.132,0.589,3.63-5.972,0-5v1,1,1,1z"/></g><g transform="translate(361.9556,103.3262)"><path fill-rule="evenodd" fill="#add8ea" d="m0,0,0,1c2.131,0.588,3.63-5.973,0-5v1,1,1,1z"/></g><g transform="translate(274.9663,146.3203)"><path fill-rule="evenodd" fill="#add8ea" d="m0,0c3.675,0.963,3.975-4.912,1-4.999v1c0.086,1.419,0.165,2.831-1,2.999v1z"/></g><g transform="translate(318.9609,520.2739)"><path fill-rule="evenodd" fill="#74bedf" d="M0,0c-0.282,1.615,0.945,1.721,1,3h3c0.189-0.81,1.002-0.997,1-2v-1h-5z"/></g><g transform="translate(260.9683,522.2734)"><path fill-rule="evenodd" fill="#add8ea" d="M0,0,2,0c-0.19-0.81-1.003-0.997-1-2h-1c-1.208,0.212-0.615,1.11,0,2"/></g><g transform="translate(221.9731,508.2754)"><path fill-rule="evenodd" fill="#add8ea" d="M0,0c-4.939,0.553,1.04,0.514,1,2h1c-0.19-0.81-1.003-0.997-1-2h-1z"/></g><g transform="translate(201.9756,495.2769)"><path fill-rule="evenodd" fill="#add8ea" d="M0,0c-3.808-0.746-2.162,6.475,1,5v-1c-0.529-0.805-1.043-1.624-1-3v-1z"/></g><g transform="translate(377.9536,497.2764)"><path fill-rule="evenodd" fill="#74bedf" d="M0,0c-52.646,2.313-118.32,0.346-173.98,1,52.65-2.312,118.33-0.346,173.98-1m-175.98-1c-0.043,1.377,0.471,2.196,1,3h175.98c1.273-0.226,1.31-2.984,0-3h-176.98z"/></g><g transform="translate(198.9761,491.2773)"><path fill-rule="evenodd" fill="#74bedf" d="M0,0c58.618,0.648,125.9-1.307,178.98,1-58.62-0.648-125.9,1.307-178.98-1m-3-1c-0.282,1.615,0.945,1.722,1,3h1,180.98c1.085-0.248,0.678-1.988,1.999-2-59.66-2.333-123.65-0.333-184.98-1"/></g><g transform="translate(394.9512,485.2783)"><path fill-rule="evenodd" fill="#74bedf" d="M0,0c-62.105,2.313-137.41,0.346-202.98,1,62.11-2.313,137.42-0.346,202.98-1m-204.97-1c-0.282,1.615,0.945,1.722,1,3h0.999,203.97c1.212,0.306,3.448-2.889,1-3h-206.97z"/></g><g transform="translate(176.9785,465.2808)"><path fill-rule="evenodd" fill="#add8ea" d="M0,0c-2.975,0.087-2.675,5.962,1,5v-1c-0.529-0.805-1.043-1.624-1-3v-1z"/></g><g transform="translate(422.9478,461.2813)"><path fill-rule="evenodd" fill="#74bedf" d="M0,0c-77.345,2.318-167.6,0.342-247.97,1,77.35-2.318,167.6-0.342,247.97-1m-249.97,1c0.81,0.19,0.997,1.003,2,1h248.97c0.89-0.443,1.789-0.878,2-2v-1h-249.97c-2.007,0-3.129-0.053-3,2"/></g><g transform="translate(167.9795,447.2832)"><path fill-rule="evenodd" fill="#add8ea" d="m0,0c-2.975,0.087-2.675,5.962,1,4.999v-1c-1.172-0.161-0.843-1.823-1-2.999v-1z"/></g><g transform="translate(430.9468,443.2832)"><path fill-rule="evenodd" fill="#74bedf" d="M0,0c-82.661,2.319-178.29,0.342-263.97,1,82.66-2.319,178.29-0.341,263.97-1m-265.97,1c0.85-0.184,0.943,0.39,0.999,1h265.97c0.529-0.804,1.043-1.623,1-3h-265.97c-1.7,0-1.887,0.499-1.999,2"/></g><g transform="translate(164.9805,437.2842)"><path fill-rule="evenodd" fill="#74bedf" d="M0,0c62.619,0.649,133.9-1.309,190.98,1-62.62-0.649-133.9,1.309-190.98-1m-1,2,192.98,0c1.274-0.227,1.31-2.984,0-3h-193.98v2c-0.184,0.851,0.39,0.943,1,1"/></g><g transform="translate(377.9536,437.2842)"><path fill-rule="evenodd" fill="#74bedf" d="M0,0c18.018,0.649,43.968-1.31,56.993,1-18.018-0.649-43.968,1.31-56.993-1m57.993,2c0.19-0.81,1.003-0.997,1-2v-1h-59.993c-1.257,0.41-2.043,1.29-2,3h60.993z"/></g><g transform="translate(160.9805,429.2852)"><path fill-rule="evenodd" fill="#add8ea" d="M0,0c-2.975,0.087-2.675,5.962,1,5v-1c-1.172-0.162-0.843-1.823-1-3v-1z"/></g><g transform="translate(162.9805,431.2852)"><path fill-rule="evenodd" fill="#74bedf" d="M0,0c54.943,0.646,118.56-1.306,167.98,1-54.95-0.647-118.56,1.305-167.98-1m-1,2,170.98,0c0.043-1.377-0.471-2.196-1-3h-1-169.98c0.157,1.177-0.172,2.838,1,3"/></g><g transform="translate(380.9531,425.2856)"><path fill-rule="evenodd" fill="#74bedf" d="M0,0c9.405,3.322,32.59,3.322,41.995,0-9.338-2.328-22.994-0.337-33.996-1-0.851-0.184-0.943,0.39-1,1h33.996c-9.338,2.328-22.993,0.337-33.996,1h-5.999c0.309-1.357,2.503-0.83,4-1v-1h-4c-0.851-0.184-0.943,0.39-1,1"/></g><g transform="translate(385.9526,421.2861)"><path fill-rule="evenodd" fill="#add8ea" d="M0,0,0,1c3.215,0.911,2.205-8.03,0-4v3z"/></g><g transform="translate(157.981,419.2861)"><path fill-rule="evenodd" fill="#74bedf" d="M0,0c53.945,0.646,116.57-1.304,164.98,1-53.94-0.646-116.57,1.305-164.98-1m-1,2c51.99-1.277,119.61,2.583,167.98-2-0.85,0.184-0.943-0.39-1-1h-167.98v2c-0.184,0.851,0.39,0.943,1,1"/></g><g transform="translate(320.9604,415.2871)"><path fill-rule="evenodd" fill="#74bedf" d="m0,0c2.448-0.111,0.212-3.306-1-3h-165.98v1h165.98c-53.327,2.333-110.99,0.333-165.98,1,0.057,0.61,0.149,1.184,1,1h165.98z"/></g><g transform="translate(389.9521,415.2871)"><path fill-rule="evenodd" fill="#74bedf" d="m0,0,24.997,0c0.609-0.057,1.184-0.149,1-1-4.125-4.541-16.573-0.759-23.997-2v1h22.997c-5.684,1.664-18.314,1.664-23.997,0-0.779,0.221-1.163,0.837-1,2"/></g><g transform="translate(415.9487,407.2881)"><path fill-rule="evenodd" fill="#74bedf" d="M0,0c0.11,2.143-12.169,0.472-16.998,1-0.11-2.144,12.169-0.472,16.998-1m-18.998,2,19.998,0c0.85,0.184,0.943-0.391,1-1v-2h-18.998c-1.23,0.437-2.053,1.279-2,3"/></g><g transform="translate(151.9814,401.2886)"><path fill-rule="evenodd" fill="#74bedf" d="M0,0c52.621,0.646,113.9-1.304,160.98,1-52.62-0.646-113.9,1.304-160.98-1m-1,2,163.98,0c-0.157-1.177,0.172-2.838-1-3h-122.98c-13.665,0-33.221-1.561-40.996,2-0.184,0.85,0.391,0.943,1,1"/></g><g transform="translate(150.9819,395.2896)"><path fill-rule="evenodd" fill="#74bedf" d="M0,0c54.607,0.646,117.92-1.305,166.98,1-54.61-0.646-117.92,1.304-166.98-1m-1,2c52.629-1.278,120.98,2.583,169.98-2,0.184-0.851-0.39-0.943-1-1h-127.98c-14.008,0-33.989-1.561-41.995,2-0.184,0.85,0.39,0.943,1,1"/></g><g transform="translate(374.9541,388.2905)"><path fill-rule="evenodd" fill="#74bedf" d="M0,0c-0.044,1.71,0.743,2.589,2,3,14.333-0.665,31.326,1.329,43.994-1h-21.997c-5.31,0-19.262,2.735-21.997,0,1.732,1.732,17.315-1,21.997-1h21.997c-13.335-2.331-30.994-0.336-45.994-1"/></g><g transform="translate(307.9624,383.291)"><path fill-rule="evenodd" fill="#add8ea" d="M0,0,0,2,2,2c-0.368-1.701,0.779-1.887,2-2,0.155-4.405-2.827-0.283-4,0"/></g><g transform="translate(311.9619,383.291)"><path fill-rule="evenodd" fill="#74bedf" d="M0,0c-1.22,0.113-2.368,0.299-2,2h3c0.162-1.163-0.221-1.779-1-2"/></g><g transform="translate(417.9487,383.291)"><path fill-rule="evenodd" fill="#74bedf" d="M0,0c-9.372,2.299-31.633,0.358-45.995,1,9.372-2.299,31.634-0.359,45.995-1m-45.995,2c15.358-1.307,35.96,2.63,47.995-2-0.851,0.184-0.944-0.39-1-1h-48.994c-0.044,1.71,0.743,2.59,1.999,3"/></g><g transform="translate(294.9639,379.2915)"><path fill-rule="evenodd" fill="#74bedf" d="m0,0,1,0c0.693-0.807,1.556-2.739,0-3h-146.98v1h145.98c-46.661,2.333-97.654,0.333-145.98,1v1h145.98z"/></g><g transform="translate(299.9634,377.2915)"><path fill-rule="evenodd" fill="#74bedf" d="M0,0,0,1c0.444,1.65,7.555,1.65,7.999,0h-6.999c0.43-2.236,4.927-0.405,6.999-1-0.431-2.235-4.928-0.405-6.999-1-0.851-0.184-0.943,0.39-1,1"/></g><g transform="translate(149.9819,373.292)"><path fill-rule="evenodd" fill="#74bedf" d="M0,0c48.994-0.666,100.65,1.333,147.98-1h-147.98c47.328-2.333,98.987-0.333,147.98-1-47.33-2.332-98.985-0.333-147.98-1-1.274,0.227-1.31,2.985,0,3"/></g><g transform="translate(416.9487,370.2925)"><path fill-rule="evenodd" fill="#74bedf" d="M0,0c-1.177,0.157-2.838-0.172-3,1-0.128,1.795,0.993,2.34,3,2,1.273-0.227,1.31-2.984,0-3"/></g><g transform="translate(307.9624,372.2925)"><path fill-rule="evenodd" fill="#74bedf" d="m0,0m-6-2c-0.144,1.182-1.78,2.267,0,3h6c1.171-0.162,0.843-1.823,1-3h-7z"/></g><g transform="translate(298.9634,366.293)"><path fill-rule="evenodd" fill="#74bedf" d="M0,0c-2.071-0.595-6.568,1.236-6.999-1,2.071,0.595,6.568-1.235,6.999,1m-146.98-1c44.307,0.643,97.2-1.299,135.98,1-44.307-0.642-97.199,1.299-135.98-1m-1.999,0c18.135,3.595,48.771,2,73.99,2h74.99c0.851,0.184,0.943-0.39,1-1,0.61-3.943-5.49-1.176-7.999-2-0.294,2.333-2.706,2.333-3,0h-137.98c-0.851-0.184-0.944,0.39-1,1"/></g><g transform="translate(395.9512,365.293)"><path fill-rule="evenodd" fill="#74bedf" d="M0,0c2.43,1.853-6.591,0.675-8.999,1-2.429-1.853,6.591-0.675,8.999-1m-9.999,2c3.62-1.046,11.601,2.268,11.999-2,0.184-0.85-0.39-0.943-1-1h-10.999c-0.693,0.807-1.555,2.739,0,3"/></g><g transform="translate(415.9487,365.293)"><path fill-rule="evenodd" fill="#8dc9e3" d="M0,0c0.113,1.22,0.299,2.368,2,2h1v-3c-1.615-0.281-1.722,0.945-3,1"/></g><g transform="translate(309.9619,367.293)"><path fill-rule="evenodd" fill="#add8ea" d="m0,0c3.598,0.962,1.95-4.493,0-4v1,3z"/></g><g transform="translate(150.9819,359.2939)"><path fill-rule="evenodd" fill="#74bedf" d="m0,0c16.464,3.596,44.882,2,67.991,2h68.992v-1h-135.98c43.328-2.333,90.988-0.333,135.98-1v-1h-135.98c-0.851-0.184-0.943,0.39-1,1"/></g><g transform="translate(310.9619,360.2939)"><path fill-rule="evenodd" fill="#74bedf" d="M0,0c-5.348-0.651-13.312,1.313-16.998-1,5.348,0.651,13.311-1.313,16.998,1m-17.998,1,18.998,0c0.693-0.807,1.556-2.739,0-3h-18.998c-1.273,0.227-1.31,2.984,0,3"/></g><g transform="translate(419.9482,358.2939)"><path fill-rule="evenodd" fill="#add8ea" d="M0,0c-0.529,0.804-1.043,1.623-1,3,2.134,0.467,1.905-1.429,2-3h-1z"/></g><g transform="translate(276.9663,356.2944)"><path fill-rule="evenodd" fill="#add8ea" d="m0,0c2.975-0.087,2.675-5.962-1-5v1c0.529,0.805,1.043,1.624,1,3v1z"/></g><g transform="translate(422.9478,354.2944)"><path fill-rule="evenodd" fill="#74bedf" d="M0,0c-0.184,0.851,0.39,0.943,1,1h1c0.529-0.804,1.043-1.623,1-3-1.71-0.043-2.59,0.744-3,2"/></g><g transform="translate(234.9712,341.2964)"><path fill-rule="evenodd" fill="#74bedf" d="M0,0c-19.346,2.319-51.648,0.343-75.99,1,19.346-2.32,51.648-0.344,75.99-1m-77.99,2,80.99,0c0.043-1.71-0.743-2.59-2-3h-77.99c-0.85-0.184-0.943,0.39-1,1v2z"/></g><g transform="translate(296.9639,342.2959)"><path fill-rule="evenodd" fill="#74bedf" d="M0,0m-1,1c4.09-1.116,17.053,1.639,12.998-2-1.758-0.575-5.874,1.209-5.999-1h-1-5.999c-1.274,0.227-1.311,2.985,0,3"/></g><g transform="translate(438.9458,341.2964)"><path fill-rule="evenodd" fill="#74bedf" d="M0,0c3.235,1.151-2.685,1.131-4,1-3.234-1.152,2.686-1.132,4-1m-5.999,2,5.999,0c1.44-0.56,2.44-1.56,3-3h-7-1c-0.054,1.278-1.281,1.385-0.999,3"/></g><g transform="translate(161.9805,335.2969)"><path fill-rule="evenodd" fill="#74bedf" d="M0,0c22.344,0.655,52.642-1.317,69.991,1-22.344-0.655-52.641,1.317-69.991-1m-2,2,73.991,0,0-2c0.184-0.851-0.39-0.943-1-1h-71.991c-0.851-0.184-0.943,0.39-1,1v2z"/></g><g transform="translate(302.9629,336.2969)"><path fill-rule="evenodd" fill="#74bedf" d="m0,0m-5-2c-0.144,1.182-1.78,2.267,0,3h5c1.172-0.162,0.843-1.823,1-3h-6z"/></g><g transform="translate(230.9717,329.2979)"><path fill-rule="evenodd" fill="#74bedf" d="M0,0c-16.018,2.315-44.979,0.346-65.991,1,16.018-2.316,44.979-0.347,65.991-1m-67.991,2,68.991,0c1.274-0.227,1.311-2.985,0-3h-67.991c-1.172,0.161-0.844,1.823-1,3"/></g><g transform="translate(304.9624,329.2979)"><path fill-rule="evenodd" fill="#74bedf" d="M0,0c3.235,1.151-2.685,1.131-4,1-3.234-1.151,2.686-1.132,4-1m-5.999,0c-0.801,3.801,4.728,1.271,6.999,2,0.89-0.443,1.789-0.878,2-2v-1h-7.999c-0.851-0.184-0.943,0.39-1,1"/></g><g transform="translate(165.98,323.2983)"><path fill-rule="evenodd" fill="#74bedf" d="m0,0c18.35,4.647,45.313,0.681,66.992,2v-1h-65.992c19.999-2.332,44.327-0.334,65.992-1v-1h-64.992c-0.81,0.19-0.997,1.003-2,1"/></g><g transform="translate(232.9717,317.2993)"><path fill-rule="evenodd" fill="#74bedf" d="M0,0c-14.355,2.313-41.644,0.348-60.992,1,14.355-2.313,41.643-0.349,60.992-1m-62.992,2,63.992,0c1.165-0.168,1.085-1.581,1-3h-63.992c-0.529,0.804-1.043,1.623-1,3"/></g><g transform="translate(174.979,309.3003)"><path fill-rule="evenodd" fill="#add8ea" d="M0,0c-3.675-0.963-3.975,4.912-1,5v-1c-0.282-1.616,0.945-1.722,1-3v-1z"/></g><g transform="translate(304.9624,312.2998)"><path fill-rule="evenodd" fill="#74bedf" d="M0,0m-2-1c-1.41,3.192,5.983,2.527,6,1,0.003-1.003-0.81-1.19-1-2h-4c-0.85-0.184-0.943,0.39-1,1"/></g><g transform="translate(430.9468,310.2998)"><path fill-rule="evenodd" fill="#74bedf" d="M0,0c0.224,0.776,0.028,1.973,1,2,0.745-2.255,5.608-0.391,7.999-1-0.431,2.236-4.928,0.405-6.999,1v1c2.509-0.824,8.609,1.944,7.999-2-0.61-0.057-1.184-0.149-1-1h-8.999z"/></g><g transform="translate(304.9624,304.3008)"><path fill-rule="evenodd" fill="#74bedf" d="M0,0c-0.34,2.007,0.205,3.128,2,3h1v-3h-3z"/></g><g transform="translate(436.9463,305.3008)"><path fill-rule="evenodd" fill="#74bedf" d="M0,0c2.88,1.674-5.109,0.795-7,1-2.879-1.674,5.11-0.796,7-1m-7.999,2c3.041-0.958,10.14,2.141,9.999-2-1.712-2.288-7.633-0.367-10.999-1v2c-0.184,0.85,0.39,0.943,1,1"/></g><g transform="translate(178.9785,305.3008)"><path fill-rule="evenodd" fill="#74bedf" d="M0,0c19.348,0.651,46.637-1.313,60.992,1-19.348-0.652-46.637,1.313-60.992-1m61.992,2c0.529-0.805,1.043-1.624,1-3-21.332,0.666-45.326-1.332-64.992,1,17.352,4.646,43.313,0.682,63.992,2"/></g><g transform="translate(244.9702,302.3013)"><path fill-rule="evenodd" fill="#add8ea" d="m0,0c3.162,1.476,4.808-5.746,1-5v1c0.282,1.615-0.945,1.722-1,3v1z"/></g><g transform="translate(177.9785,301.3013)"><path fill-rule="evenodd" fill="#74bedf" d="m0,0,55.993,0c1.274-0.226,1.31-2.984,0-3h-55.993v1h55.993c-16.667,2.331-37.66,0.335-55.993,1v1z"/></g><g transform="translate(305.9624,300.3013)"><path fill-rule="evenodd" fill="#8dc9e3" d="M0,0c0.162,1.172,1.823,0.843,3,1,1.78-0.733,0.144-1.818,0-3h-1c-0.89,0.443-1.789,0.878-2,2"/></g><g transform="translate(317.9609,301.3013)"><path fill-rule="evenodd" fill="#74bedf" d="m0,0,3,0c0.085-1.419,0.165-2.832-1-3-2.007-0.34-3.128,0.205-3,2,0.851-0.184,0.943,0.39,1,1"/></g><g transform="translate(419.9482,300.3013)"><path fill-rule="evenodd" fill="#74bedf" d="m0,0,0,1,19.998,0c1.273-0.226,1.31-2.984,0-3h-21.998c0.224,0.776,0.028,1.973,1,2,5.013-2.319,14.321-0.343,20.998-1-4.682,2.318-13.654,0.345-19.998,1"/></g><g transform="translate(413.9492,291.3022)"><path fill-rule="evenodd" fill="#add8ea" d="M0,0c-2.975,0.087-2.675,5.962,1,5v-1c-0.529-0.805-1.043-1.624-1-3v-1z"/></g><g transform="translate(247.9697,293.3022)"><path fill-rule="evenodd" fill="#74bedf" d="M0,0c1.163-0.163,1.779,0.221,2,1,2.767-0.43,0.051-3.145-2-2v1z"/></g><g transform="translate(313.9614,275.3047)"><path fill-rule="evenodd" fill="#74bedf" d="M0,0c3.057,1.546-4.337,0.88-5.999,1-3.057-1.546,4.337-0.881,5.999-1m-6.999,2c3.041-0.959,10.14,2.141,9.999-2-0.81-0.19-0.997-1.003-2-1h-7.999c-1.274,0.226-1.311,2.984,0,3"/></g><g transform="translate(436.9463,275.3047)"><path fill-rule="evenodd" fill="#74bedf" d="M0,0c-3.43,2.25-19.593,0.394-27.997,1,3.43-2.25,19.593-0.395,27.997-1m2,2c1.78-0.733,0.144-1.819,0-3h-30.997c-1.274,0.226-1.31,2.984,0,3h30.997z"/></g><g transform="translate(426.9473,267.3057)"><path fill-rule="evenodd" fill="#add8ea" d="m0,0c-2.975,0.087-2.675,5.962,1,4.999v-1c-1.172-0.161-0.843-1.823-1-2.999v-1z"/></g><g transform="translate(324.96,269.3052)"><path fill-rule="evenodd" fill="#74bedf" d="M0,0c0.241,1.759,1.721,2.279,4,2,0.281-1.615-0.945-1.722-1-3-1.177,0.157-2.838-0.172-3,1"/></g><g transform="translate(187.9771,261.3062)"><path fill-rule="evenodd" fill="#add8ea" d="M0,0c-3.675-0.962-3.975,4.912-1,5v-1c-0.085-1.419-0.165-2.832,1-3v-1z"/></g><g transform="translate(405.9502,263.3062)"><path fill-rule="evenodd" fill="#74bedf" d="M0,0c1.466,0.01,8.182-0.378,4.999,1-1.466-0.011-8.182,0.377-4.999-1m-1,2c2.509-0.824,8.609,1.943,7.999-2-0.851,0.184-0.943-0.39-1-1h-9.999c-0.299,1.966,1.351,1.983,2,3h1z"/></g><g transform="translate(436.9463,263.3062)"><path fill-rule="evenodd" fill="#74bedf" d="m0,0c-2.244-1.269-17.906-2.979-13.999,2h1c4.025-0.642,10.633,1.299,12.999-1h-12.999c2.367-2.3,8.975-0.358,12.999-1"/></g><g transform="translate(188.9771,263.3062)"><path fill-rule="evenodd" fill="#74bedf" d="M0,0c13.697,0.639,35.286-1.296,43.995,1-13.698-0.639-35.286,1.296-43.995-1m44.995,2c0.09-1.577,2.549-0.783,1.999-3h-47.994c-1.165,0.168-1.085,1.581-1,3h45.995,1z"/></g><g transform="translate(319.9609,257.3066)"><path fill-rule="evenodd" fill="#74bedf" d="M0,0c-0.838,2.187-14.206,0.44-19.998,1,0.838-2.187,14.206-0.44,19.998-1m-20.998,2,22.998,0c0.281-1.615-0.945-1.722-1-3h-21.998c-1.273,0.227-1.31,2.984,0,3"/></g><g transform="translate(325.96,256.3066)"><path fill-rule="evenodd" fill="#74bedf" d="M0,0c-1.2,1.313-0.39,1.573,0,3,2.714-0.62,7.935,1.269,8.999-1-0.221-0.779-0.837-1.163-2-1-0.431,2.236-4.928,0.405-6.999,1,0.125-2.208,4.242-0.425,6-1v-1h-6z"/></g><g transform="translate(409.9497,256.3066)"><path fill-rule="evenodd" fill="#8dc9e3" d="M0,0c0.282,1.615-0.945,1.722-1,3h1c0.279-2.318,2.67-2.298,4-1v-2h-4z"/></g><g transform="translate(325.96,259.3066)"><path fill-rule="evenodd" fill="#8dc9e3" d="m0,0c-0.39-1.427-1.2-1.687,0-3-1.313,1.283-3.686,1.283-5,0,0.056,1.278,1.282,1.385,1,3h4z"/></g><g transform="translate(229.9722,251.3076)"><path fill-rule="evenodd" fill="#74bedf" d="M0,0c-16.684,2.316-46.313,0.346-67.992,1,16.684-2.317,46.313-0.346,67.992-1m-68.992,2,69.992,0c1.273-0.227,1.31-2.985,0-3h-74.991c-4.939,0.553,1.039,0.514,1,2,1.583,0.083,3.814-0.481,3.999,1"/></g><g transform="translate(364.9551,250.3076)"><path fill-rule="evenodd" fill="#8dc9e3" d="M0,0-2,0c-0.34,2.007,0.205,3.128,2,3,1.274-0.227,1.311-2.985,0-3"/></g><g transform="translate(369.9546,250.3076)"><path fill-rule="evenodd" fill="#8dc9e3" d="M0,0c-0.467,2.134,1.428,1.904,3,2,2.155-2.186-0.256-2.147-3-2"/></g><g transform="translate(439.9458,251.3076)"><path fill-rule="evenodd" fill="#74bedf" d="M0,0c-13.69,2.311-40.31,0.349-58.993,1,13.69-2.312,40.31-0.35,58.993-1m-60.992-1c-0.044,1.376,0.471,2.195,0.999,3h61.993v-3h-62.992z"/></g><g transform="translate(228.9722,245.3081)"><path fill-rule="evenodd" fill="#74bedf" d="M0,0c-22.01,2.322-56.983,0.342-83.99,1,22.011-2.322,56.984-0.342,83.99-1m-84.99,2c27.323-4.13,62.915,5.979,86.99-1,0.089-0.026-0.072-0.913,0-1,0.184-0.85-0.39-0.943-1-1h-89.989c-0.428,2.761,3.728,0.938,3.999,3"/></g><g transform="translate(229.9722,242.3086)"><path fill-rule="evenodd" fill="#add8ea" d="m0,0c3.675,0.962,3.975-4.912,1-5v1c0.085,1.419,0.165,2.832-1,3v1z"/></g><g transform="translate(235.9712,227.3105)"><path fill-rule="evenodd" fill="#74bedf" d="M0,0c-37.414,2.301-88.127,0.353-128.98,1,37.41-2.301,88.123-0.354,128.98-1m1,2c0.89-0.443,1.788-0.878,2-2v-1h-134.98c0.19,0.81,1.003,0.997,0.999,2,0.81,0.19,0.997,1.003,2,1h129.98z"/></g><g transform="translate(240.9707,221.311)"><path fill-rule="evenodd" fill="#74bedf" d="M0,0c-42.655,2.308-98.315,0.349-143.98,1,42.65-2.308,98.313-0.349,143.98-1m0,2c1.23-0.437,2.053-1.28,2-3-49.334,1.303-103.51-2.625-148.98,2,1.614-0.282,1.721,0.945,2.999,1h143.98z"/></g><g transform="translate(245.9702,218.3115)"><path fill-rule="evenodd" fill="#add8ea" d="m0,0c3.162,1.476,4.808-5.745,1-5v1c0.281,1.615-0.945,1.722-1,3v1z"/></g><g transform="translate(350.957,209.3125)"><path fill-rule="evenodd" fill="#74bedf" d="m0,0c8.06,4.605,24.619,0.711,35.995,2-0.19-0.81-1.003-0.997-0.999-2-0.805-0.529-1.624-1.043-3-1h-29.996v1h31.996c-8.676,1.665-24.321,1.665-32.996,0h-1z"/></g><g transform="translate(249.9697,209.3125)"><path fill-rule="evenodd" fill="#74bedf" d="M0,0c-53.422,2.31-120.1,0.348-176.98,1,53.42-2.31,120.1-0.348,176.98-1m0,2c0.89-0.443,1.788-0.878,2-2v-1h-182.98c-2.467,0.958,3.175,2.043,4,3h176.98z"/></g><g transform="translate(253.9692,203.3135)"><path fill-rule="evenodd" fill="#74bedf" d="M0,0c-58.767,2.312-130.76,0.346-192.98,1,58.77-2.312,130.76-0.347,192.98-1m1,2c1.171-0.162,0.843-1.823,1-3-66.014,1.309-136.81-2.633-198.98,2,1.419-0.086,2.832-0.165,3,1h194.98z"/></g><g transform="translate(352.9565,197.314)"><path fill-rule="evenodd" fill="#74bedf" d="M0,0c3.886,0.481,15.03-1.077,13.999,1-3.886-0.481-15.03,1.077-13.999-1m-1,2,16.998,0c0.044-1.376-0.471-2.196-1-3h-0.999-15.999-1c-0.043,1.71,0.744,2.59,2,3"/></g><g transform="translate(257.9688,197.314)"><path fill-rule="evenodd" fill="#74bedf" d="M0,0c-64.67,2.316-142.28,0.344-209.97,1,64.67-2.315,142.28-0.344,209.97-1m1,2c0.529-0.804,1.043-1.624,1-3h-108.99-54.993-26.997-13.998c-3.16,0.697-13.011-1.743-9.999,2,0.805,0.529,1.623,1.043,3,1h210.98z"/></g><g transform="translate(261.9678,194.3145)"><path fill-rule="evenodd" fill="#add8ea" d="M0,0c3.675,0.963,3.975-4.912,1-4.999v0.999c0.086,1.42,0.165,2.832-1,3v1z"/></g><g transform="translate(347.957,189.3154)"><path fill-rule="evenodd" fill="#add8ea" d="m0,0c-2.975,0.087-2.675,5.962,1,4.999v-1c-1.172-0.161-0.843-1.823-1-2.999v-1z"/></g><g transform="translate(361.9556,192.3149)"><path fill-rule="evenodd" fill="#74bedf" d="M0,0c-4.024-0.642-10.632,1.3-12.999-1,4.025,0.642,10.633-1.3,12.999,1m-12.999,1,14.999,0c0.053-1.72-0.77-2.563-2-3h-13.999c0.157,1.177-0.171,2.838,1,3"/></g><g transform="translate(358.9561,188.3154)"><path fill-rule="evenodd" fill="#add8ea" d="m0,0c2.975-0.087,2.675-5.962-1-5v1c0.529,0.804,1.043,1.624,1,3v1z"/></g><g transform="translate(343.9575,179.3164)"><path fill-rule="evenodd" fill="#74bedf" d="M0,0c2.688,0.369,12.172-0.917,9.999,1-2.688-0.369-12.171,0.917-9.999-1m-2-1c-2.447,0.111-0.212,3.306,1,3,3.92-1.08,12.314,2.315,12.999-2-0.851,0.184-0.943-0.39-1-1h-12.999z"/></g><g transform="translate(348.957,168.3179)"><path fill-rule="evenodd" fill="#74bedf" d="M0,0c-2.713-0.619-7.935,1.27-8.999-1,2.714,0.619,7.936-1.269,8.999,1m-10.999,0c0.851-0.184,0.944,0.39,1,1h10.999c0.086-1.419,0.165-2.832-1-3-3.366,0.633-9.287-1.288-10.999,1v1z"/></g><g transform="translate(349.957,164.3184)"><path fill-rule="evenodd" fill="#add8ea" d="m0,0c3.675,0.962,3.975-4.912,1-5v1c0.086,1.419,0.165,2.832-1,3v1z"/></g><g transform="translate(352.9565,149.3203)"><path fill-rule="evenodd" fill="#74bedf" d="M0,0c-6.392,2.282-25.62,0.371-36.995,1,6.391-2.283,25.62-0.371,36.995-1m-36.995,2,37.995,0c0.851,0.184,0.943-0.391,1-1-9.713-4.619-27.961-0.702-40.995-2-0.282,1.615,0.945,1.721,1,3h1z"/></g><g transform="translate(273.9663,151.3198)"><path fill-rule="evenodd" fill="#add8ea" d="m0,0c3.598,0.962,1.95-4.493,0-4v1,3z"/></g><g transform="translate(292.9644,145.3208)"><path fill-rule="evenodd" fill="#74bedf" d="M0,0c2.071-0.595,6.568,1.236,6.999-1h-6.999c0.43-2.236,4.927-0.405,6.999-1-0.488-1.381-9.014-2.427-7.999,1-0.184,0.851,0.39,0.943,1,1"/></g><g transform="translate(277.9658,139.3213)"><path fill-rule="evenodd" fill="#74bedf" d="m0,0c1.257-0.41,2.043-1.289,2-3h-273.97v1c90.33,0.667,183.31-1.333,271.97,1h-271.97v1h271.97z"/></g><g transform="translate(297.9634,137.3218)"><path fill-rule="evenodd" fill="#74bedf" d="M0,0c3.057,1.546-4.337,0.88-5.999,1-3.057-1.546,4.337-0.881,5.999-1m-6.999,2,7.999,0,3,0c17.999-0.666,38.659,1.331,54.993-1h-55.993c16.667-2.331,37.66-0.335,55.993-1-19.68-1.012-48.974-2.982-66.992,1-0.184,0.85,0.39,0.943,1,1"/></g><g transform="translate(285.9648,130.3228)"><path fill-rule="evenodd" fill="#add8ea" d="M0,0c-0.353,1.313-1.76,1.572-2,3,0.805-0.53,1.624-1.043,3-1v-2h-1z"/></g><g transform="translate(286.9648,132.3223)"><path fill-rule="evenodd" fill="#74bedf" d="m0,0c0.81,0.19,0.997,1.003,2,1h68.991v-1h-68.991c20.999-2.332,46.326-0.334,68.991-1v-1h-70.991v2z"/></g><g transform="translate(6,108.3252)"><path fill-rule="evenodd" fill="#74bedf" d="m0,0,0,1,354.96,0c1.273-0.226,1.31-2.984,0-3h-354.96v1h310.96c8.627,0,41.029-2.965,43.995,0-0.737-0.736-39.453,1-43.995,1h-310.96z"/></g><g transform="translate(6,90.3276)"><path fill-rule="evenodd" fill="#74bedf" d="m0,0,0,1,356.96,0c1.273-0.227,1.31-2.984,0-3h-356.96v1h356.96c-116.99,2.333-238.31,0.333-356.96,1"/></g><g transform="translate(6,85.3281)"><path fill-rule="evenodd" fill="#74bedf" d="m0,0,357.96,0c-0.003-1.003,0.81-1.19,1-2,0.184-0.85-0.39-0.943-1-1h-357.96v1c118.65,0.667,239.97-1.333,356.96,1h-356.96v1z"/></g><g transform="translate(6,72.3296)"><path fill-rule="evenodd" fill="#74bedf" d="m0,0,0,1,358.96,0c1.274-0.226,1.311-2.984,0-3h-358.96v1h358.96c-117.66,2.333-239.64,0.333-358.96,1"/></g><g transform="translate(6,42.3335)"><path fill-rule="evenodd" fill="#74bedf" d="m0,0,0,1,361.96,0c1.274-0.227,1.31-2.984,0-3h-361.96v1h361.96c-118.66,2.333-241.64,0.333-361.96,1"/></g><g transform="translate(6,24.3359)"><path fill-rule="evenodd" fill="#74bedf" d="m0,0,0,1,363.96,0c1.273-0.227,1.31-2.984,0-3h-363.96v1h363.96c-119.32,2.333-242.98,0.333-363.96,1"/></g><g transform="translate(262.9678,522.2734)"><path fill-rule="evenodd" fill="#74bedf" d="m0,0,2,0c5.02-1.664,16.978-1.664,21.997,0h2c0.19-0.81,1.003-0.997,1-2h-27.997c-0.003,1.003,0.81,1.19,1,2"/></g><g transform="translate(377.9536,492.2773)"><path fill-rule="evenodd" fill="#30a5d2" d="M0,0c-53.082-2.307-120.36-0.352-178.98-1,53.08,2.307,120.36,0.352,178.98,1"/></g><g transform="translate(409.9497,474.2793)"><path fill-rule="evenodd" fill="#30a5d2" d="M0,0c-69.069-2.312-152.37-0.348-226.97-1,69.07,2.313,152.37,0.349,226.97,1"/></g><g transform="translate(182.978,473.2798)"><path fill-rule="evenodd" fill="#74bedf" d="M0,0c74.599,0.652,157.9-1.313,226.97,1-74.6-0.652-157.9,1.312-226.97-1m227.97,2c0.112-1.889,3.306-0.694,3-3-72.91,1.291-163.92-2.603-233.97,2,0.81,0.19,0.997,1.003,2,1h228.97z"/></g><g transform="translate(417.9487,468.2803)"><path fill-rule="evenodd" fill="#30a5d2" d="M0,0c-73.063-2.313-160.37-0.347-238.97-1,73.06,2.313,160.37,0.348,238.97,1"/></g><g transform="translate(418.9482,455.2822)"><path fill-rule="evenodd" fill="#74bedf" d="M0,0c-76.765,2.316-166.75,0.343-246.97,1,76.77-2.317,166.75-0.344,246.97-1m6,1m-1-2c0.715,1.621-4.715,1.621-4,0-78.121,1.293-174.69-2.606-249.97,2,0.851-0.184,0.944,0.39,1,1h256.97c1.212,0.306,3.448-2.889,1-3h-3.999-1z"/></g><g transform="translate(424.9478,456.2817)"><path fill-rule="evenodd" fill="#30a5d2" d="M0,0"/></g><g transform="translate(424.9478,450.2822)"><path fill-rule="evenodd" fill="#30a5d2" d="M0,0c-78.396-2.314-171.03-0.346-254.97-1,78.4,2.315,171.03,0.347,254.97,1"/></g><g transform="translate(355.9561,438.2842)"><path fill-rule="evenodd" fill="#30a5d2" d="M0,0c-57.081-2.309-128.36-0.351-190.98-1,57.08,2.309,128.36,0.351,190.98,1"/></g><g transform="translate(371.9541,437.2842)"><path fill-rule="evenodd" fill="#30a5d2" d="M0,0c-9.883-0.691-9.883,1.691,0,1v-1z"/></g><g transform="translate(434.9463,438.2842)"><path fill-rule="evenodd" fill="#30a5d2" d="M0,0c-13.025-2.31-38.975-0.351-56.993-1,13.025,2.31,38.975,0.351,56.993,1"/></g><g transform="translate(330.9595,432.2847)"><path fill-rule="evenodd" fill="#30a5d2" d="M0,0c-49.416-2.305-113.04-0.353-167.98-1,49.42,2.305,113.03,0.353,167.98,1"/></g><g transform="translate(353.9565,431.2852)"><path fill-rule="evenodd" fill="#74bedf" d="M0,0c1.031,2.076-10.113,0.519-13.999,1-1.031-2.077,10.113-0.52,13.999-1m-16.998,2,18.998,0,1,0c0.043-1.711-0.744-2.59-2-3h-14.999-1.999c-0.055,1.278-1.282,1.385-1,3"/></g><g transform="translate(362.9556,430.2852)"><path fill-rule="evenodd" fill="#74bedf" d="M0,0c-1.311,0.015-1.274,2.773,0,3h6.999c-0.224-0.776-0.028-1.973-1-2,0.168,2.168-3.546,0.453-4.999,1,0.309-1.357,2.503-0.83,3.999-1v-1h-4.999z"/></g><g transform="translate(367.9546,431.2852)"><path fill-rule="evenodd" fill="#30a5d2" d="M0,0c-1.496,0.17-3.69-0.357-4,1,1.454-0.547,5.168,1.168,5-1h-1z"/></g><g transform="translate(325.96,425.2856)"><path fill-rule="evenodd" fill="#74bedf" d="M0,0c-50.007,2.312-112.95,0.346-165.98,1,50.01-2.312,112.95-0.346,165.98-1m-166.98,2c53.57-1.276,119.79,2.582,168.98-2,0.184-0.85-0.39-0.943-1-1h-167.98c-1.781,0.733-0.144,1.818,0,3"/></g><g transform="translate(349.957,425.2856)"><path fill-rule="evenodd" fill="#30a5d2" d="M0,0c-12.805-1.188-6.147,3.088,1,0h-1z"/></g><g transform="translate(385.9526,425.2856)"><path fill-rule="evenodd" fill="#3ca9d4" d="M0,0c-1.496,0.17-3.69-0.357-4,1h6v-1h-2z"/></g><g transform="translate(421.9482,420.2861)"><path fill-rule="evenodd" fill="#74bedf" d="M0,0c-9.338-0.661-21.324,1.326-28.997-1,9.338,0.661,21.324-1.325,28.997,1m-29.997,1c9.191-1.685,28.577,3.562,30.997-3h-1-29.997c-1.31,0.016-1.273,2.774,0,3"/></g><g transform="translate(322.9604,420.2861)"><path fill-rule="evenodd" fill="#30a5d2" d="M0,0c-48.413-2.304-111.04-0.354-164.98-1,48.41,2.305,111.04,0.354,164.98,1"/></g><path fill-rule="evenodd" fill="#74bedf" d="m385.95,418.29-3,0,0,3,3,0,0-3z"/><g transform="translate(312.9614,402.2886)"><path fill-rule="evenodd" fill="#30a5d2" d="M0,0c-47.083-2.304-108.36-0.354-160.98-1,47.08,2.304,108.36,0.354,160.98,1"/></g><g transform="translate(321.9604,403.2886)"><path fill-rule="evenodd" fill="#74bedf" d="m0,0c-0.157-1.177,0.172-2.838-1-3-1.22,0.114-2.367,0.299-2,2,0.162,1.172,1.823,0.843,3,1"/></g><g transform="translate(396.9512,397.2891)"><path fill-rule="evenodd" fill="#add8ea" d="M0,0,5,0c-0.169-1.165-1.581-1.086-3-1h-2v1z"/></g><g transform="translate(317.9609,396.2891)"><path fill-rule="evenodd" fill="#30a5d2" d="M0,0c-49.063-2.304-112.37-0.354-166.98-1,49.06,2.305,112.37,0.354,166.98,1"/></g><g transform="translate(418.9482,395.2896)"><path fill-rule="evenodd" fill="#74bedf" d="M0,0c0.421,2.124-11.486,0.485-15.998,1-0.421-2.125,11.486-0.485,15.998-1m-34.996,1,2,0c2.051-1.659,10.948-1.659,12.998,0,1.42-0.086,2.832-0.166,3,1h18.998c-0.003-1.003,0.81-1.19,1-2,0.184-0.851-0.39-0.943-1-1h-36.996c-1.208,0.211-0.614,1.11,0,2"/></g><g transform="translate(150.9819,389.29)"><path fill-rule="evenodd" fill="#74bedf" d="M0,0c53.612,0.646,115.91-1.305,163.98,1-53.61-0.646-115.91,1.305-163.98-1m-2-1c-1.31,0.016-1.274,2.774,0,3,51.99-1.277,119.61,2.583,167.98-2-0.85,0.184-0.943-0.39-1-1h-166.98z"/></g><g transform="translate(314.9614,390.29)"><path fill-rule="evenodd" fill="#30a5d2" d="M0,0c-48.069-2.305-110.37-0.354-163.98-1,48.07,2.305,110.37,0.354,163.98,1"/></g><g transform="translate(420.9482,389.29)"><path fill-rule="evenodd" fill="#30a5d2" d="m0,0-21.998,0c-4.681,0-20.264,2.733-21.997,1,2.736,2.736,16.688,0,21.997,0h21.998v-1z"/></g><g transform="translate(297.9634,383.291)"><path fill-rule="evenodd" fill="#74bedf" d="M0,0,8.999,0c-50.328,2.333-104.99,0.333-156.98,1,46.99-2.333,98.319-0.333,146.98-1-47.328-2.333-98.987-0.333-147.98-1-1.311,0.015-1.274,2.773,0,3h158.98v-2c0.184-0.851-0.39-0.943-1-1h-9v1z"/></g><g transform="translate(287.9648,366.293)"><path fill-rule="evenodd" fill="#30a5d2" d="M0,0c-38.784-2.299-91.676-0.357-135.98-1,38.78,2.299,91.673,0.358,135.98,1"/></g><g transform="translate(275.9663,354.2944)"><path fill-rule="evenodd" fill="#74bedf" d="m0,0-60.993,0-30.996,0c-9.67-0.661-21.99,1.326-29.996-1,40.324,0.667,83.318-1.333,121.98,1m1,1c0.043-1.376-0.471-2.195-1-3h-121.98c-1.165,0.168-1.086,1.581-1,3h123.98z"/></g><g transform="translate(290.9644,353.2949)"><path fill-rule="evenodd" fill="#30a5d2" d="M0,0c-8.841-0.693-8.841,1.692,0,1v-1z"/></g><g transform="translate(154.9814,348.2954)"><path fill-rule="evenodd" fill="#30a5d2" d="M0,0,87.989,0c-27.331-2.333-58.992-0.334-87.989-1v1z"/></g><g transform="translate(154.9814,349.2954)"><path fill-rule="evenodd" fill="#74bedf" d="m0,0c24.521-5.171,70.205,7.276,90.989-1-0.508,0.202-1.263-0.348-1-1-1.163,0.163-1.779-0.221-2-1h-86.989c-0.61,0.057-1.184,0.149-1,1,28.997,0.666,60.658-1.333,87.989,1h-87.989v1z"/></g><g transform="translate(264.9678,347.2954)"><path fill-rule="evenodd" fill="#3ca9d4" d="M0,0c4.017,3.087,10.587-1.096,1,0h-1z"/></g><g transform="translate(265.9673,347.2954)"><path fill-rule="evenodd" fill="#74bedf" d="m0,0c9.588-1.096,3.017,3.087-1,0h-2v1c-0.555-0.003-1.134,0.81,0,1,3.367-0.633,9.288,1.288,10.999-1-0.443-0.89-0.878-1.789-1.999-2h-5c-0.85-0.184-0.943,0.39-1,1"/></g><g transform="translate(433.9463,346.2954)"><path fill-rule="evenodd" fill="#74bedf" d="M0,0c-3.04-0.04-6.581-0.582-5.999,3h2.999,1c0.091-1.576,2.551-0.783,2-3"/></g><g transform="translate(231.9717,336.2969)"><path fill-rule="evenodd" fill="#30a5d2" d="M0,0c-17.349-2.317-47.647-0.345-69.991-1,17.349,2.317,47.647,0.345,69.991,1"/></g><g transform="translate(445.9448,336.2969)"><path fill-rule="evenodd" fill="#30a5d2" d="m0,0c3.235-1.151-2.685-1.132-4-1-3.234,1.151,2.686,1.132,4,1"/></g><g transform="translate(445.9448,331.2974)"><path fill-rule="evenodd" fill="#74bedf" d="M0,0,5,0c0.056-0.61,0.149-1.184,1-1v-2h-4c-1.257,0.41-2.043,1.29-2,3"/></g><g transform="translate(300.9629,324.2983)"><path fill-rule="evenodd" fill="#3ca9d4" d="M0,0c2.072-0.595,6.569,1.236,7-1h-7v1z"/></g><g transform="translate(307.9624,323.2983)"><path fill-rule="evenodd" fill="#74bedf" d="m0,0c-0.431,2.236-4.928,0.405-7,1v1h9c-0.114-1.22-0.299-2.368-2-2"/></g><g transform="translate(300.9629,323.2983)"><path fill-rule="evenodd" fill="#8dc9e3" d="M0,0,7,0,7-1,6-1,0-1,0,0z"/></g><g transform="translate(304.9624,318.2988)"><path fill-rule="evenodd" fill="#74bedf" d="M0,0m-3,1,4,0c1.23-0.437,2.054-1.279,2-3h-5-1v3z"/></g><g transform="translate(304.9624,318.2988)"><path fill-rule="evenodd" fill="#30a5d2" d="M0,0"/></g><g transform="translate(431.9468,318.2988)"><path fill-rule="evenodd" fill="#3ca9d4" d="M0,0c1.496-0.17,3.69,0.357,4-1h-4v1z"/></g><g transform="translate(435.9463,317.2993)"><path fill-rule="evenodd" fill="#74bedf" d="m0,0c-0.31,1.357-2.503,0.83-4,1,0.057,0.61,0.15,1.184,1,1,1.453-0.547,5.168,1.168,5-1,0.184-0.851-0.39-0.943-1-1h-1z"/></g><g transform="translate(444.9453,318.2988)"><path fill-rule="evenodd" fill="#74bedf" d="M0,0c1.162-0.163,1.779,0.221,2,1,1.219-0.113,2.367-0.299,2-2-0.851,0.184-0.944-0.39-1-1-2.745-0.146-5.156-0.186-3,2"/></g><g transform="translate(236.9712,312.2998)"><path fill-rule="evenodd" fill="#74bedf" d="M0,0-30.996,0c-10.004-0.662-22.657,1.327-30.996-1,20.332,0.666,43.326-1.332,61.992,1m-61.992-2c-0.055,1.278-1.282,1.385-1,3h62.992c0.85,0.184,0.943-0.39,1-1-17.02-4.645-42.646-0.683-62.992-2"/></g><g transform="translate(304.9624,312.2998)"><path fill-rule="evenodd" fill="#30a5d2" d="M0,0"/></g><g transform="translate(239.9707,306.3008)"><path fill-rule="evenodd" fill="#30a5d2" d="M0,0c-14.355-2.313-41.644-0.349-60.992-1,14.355,2.313,41.643,0.348,60.992,1"/></g><g transform="translate(177.9785,300.3013)"><path fill-rule="evenodd" fill="#30a5d2" d="M0,0c18.333-0.665,39.326,1.331,55.993-1h-55.993v1z"/></g><g transform="translate(239.9707,301.3013)"><path fill-rule="evenodd" fill="#74bedf" d="m0,0,5,0c0.054-1.278,1.281-1.385,1-3h-4-1c0.534,1.44-3.896,2.44-1,3"/></g><g transform="translate(233.9717,294.3022)"><path fill-rule="evenodd" fill="#30a5d2" d="M0,0c-12.36-2.309-37.641-0.352-54.993-1,12.36,2.308,37.64,0.352,54.993,1"/></g><g transform="translate(178.9785,293.3022)"><path fill-rule="evenodd" fill="#74bedf" d="M0,0c17.352,0.648,42.633-1.309,54.993,1-17.352-0.648-42.633,1.308-54.993-1m55.993,2c1.274-0.227,1.31-2.985,0-3h-29.996c-4.45,0-28.98-0.965-27.997,2,0.992,2.989,23.169,1,27.997,1h29.996z"/></g><g transform="translate(247.9697,293.3022)"><path fill-rule="evenodd" fill="#63b3db" d="M0,0c-1.385,0.09-1.051,2.55,1,2,0.85,0.184,0.943-0.39,1-1-0.221-0.779-0.837-1.163-2-1"/></g><g transform="translate(439.9458,293.3022)"><path fill-rule="evenodd" fill="#74bedf" d="M0,0c-2.126,2.225-16.905,0.413-23.997,1,2.126-2.225,16.905-0.413,23.997-1m1,2c1.273-0.227,1.31-2.985,0-3h-26.997c-0.043,1.376,0.471,2.195,1,3h25.997z"/></g><g transform="translate(439.9458,288.3027)"><path fill-rule="evenodd" fill="#30a5d2" d="M0,0c-3.103-2.245-18.922-0.398-26.997-1,3.103,2.245,18.922,0.398,26.997,1"/></g><g transform="translate(412.9492,287.3027)"><path fill-rule="evenodd" fill="#74bedf" d="M0,0c8.075,0.602,23.894-1.245,26.997,1-8.076-0.602-23.894,1.245-26.997-1m27.997,2c1.273-0.226,1.31-2.984,0-3h-29.997v2c-0.184,0.851,0.39,0.943,1,1h28.997z"/></g><g transform="translate(175.9785,279.3037)"><path fill-rule="evenodd" fill="#add8ea" d="M0,0c-2.131-0.588-3.629,5.972,0,5v-1-1-1-1-1z"/></g><g transform="translate(305.9624,283.3032)"><path fill-rule="evenodd" fill="#8dc9e3" d="M0,0,3,0,3-1c-1.419,0.086-2.832,0.166-3-1h-1v2h1z"/></g><g transform="translate(438.9458,282.3037)"><path fill-rule="evenodd" fill="#30a5d2" d="M0,0c-3.43-2.25-19.593-0.395-27.997-1,3.43,2.25,19.593,0.395,27.997,1"/></g><g transform="translate(410.9492,281.3037)"><path fill-rule="evenodd" fill="#74bedf" d="M0,0c8.404,0.605,24.567-1.25,27.997,1-8.404-0.605-24.567,1.25-27.997-1m28.997,2c1.31-0.016,1.273-2.773,0-3h-30.997v3h1,29.997z"/></g><g transform="translate(234.9712,269.3052)"><path fill-rule="evenodd" fill="#74bedf" d="M0,0c-10.699,2.304-34.304,0.355-49.994,1,10.7-2.304,34.304-0.355,49.994-1m-52.993,1c15.686,1.018,40.967,2.974,54.993-1-0.851,0.184-0.943-0.39-1-1h-51.994c-0.889,0.443-1.788,0.878-1.999,2"/></g><g transform="translate(293.9639,268.3052)"><path fill-rule="evenodd" fill="#74bedf" d="M0,0c0.113,1.22,0.299,2.368,2,2,6.342-2.323,16.99-0.341,24.997-1-7.008-2.325-18.325-0.339-26.997-1"/></g><g transform="translate(413.9492,270.3052)"><path fill-rule="evenodd" fill="#30a5d2" d="m0,0c3.056-1.546-4.337-0.88-6-1-3.056,1.546,4.337,0.88,6,1"/></g><g transform="translate(407.9497,269.3052)"><path fill-rule="evenodd" fill="#74bedf" d="M0,0c1.663,0.12,9.056-0.546,6,1-1.663-0.12-9.057,0.546-6-1m-1,2h9.999c0.054-1.72-0.77-2.563-2-3h-8.999c0.157,1.177-0.171,2.838,1,3"/></g><g transform="translate(437.9458,269.3052)"><path fill-rule="evenodd" fill="#30a5d2" d="M0,0c-10.926-0.691-10.926,1.691,0,1v-1z"/></g><g transform="translate(232.9717,264.3057)"><path fill-rule="evenodd" fill="#30a5d2" d="M0,0c-8.709-2.296-30.297-0.361-43.995-1,8.709,2.296,30.298,0.361,43.995,1"/></g><g transform="translate(320.9604,264.3057)"><path fill-rule="evenodd" fill="#30a5d2" d="M0,0c-0.519-2.174-13.528-0.449-18.998-1,0.52,2.174,13.529,0.45,18.998,1"/></g><g transform="translate(327.96,264.3057)"><path fill-rule="evenodd" fill="#50aed7" d="M0,0c2.826-0.826,2.59,1.409,4.999,1-0.224-0.776-0.027-1.972-0.999-2h-4v1z"/></g><g transform="translate(410.9492,264.3057)"><path fill-rule="evenodd" fill="#30a5d2" d="M0,0c3.183-1.377-3.533-0.989-4.999-1-3.183,1.378,3.533,0.99,4.999,1"/></g><g transform="translate(436.9463,263.3062)"><path fill-rule="evenodd" fill="#30a5d2" d="M0,0c-4.024,0.642-10.632-1.3-12.999,1h12.999v-1z"/></g><g transform="translate(327.96,264.3057)"><path fill-rule="evenodd" fill="#74bedf" d="m0,0,0-1,4,0,0-1-1,0c-1.454,0.547-5.168-1.168-5,1,0.221,0.779,0.837,1.163,2,1"/></g><g transform="translate(437.9458,257.3066)"><path fill-rule="evenodd" fill="#74bedf" d="M0,0c-1.479,2.208-15.557,0.425-21.997,1,1.479-2.208,15.557-0.425,21.997-1m-23.997,2,5.999,0,17.998,0c0.81-0.19,0.997-1.003,2-1-4.775-4.557-17.917-0.747-25.997-2v2,1z"/></g><g transform="translate(229.9722,257.3066)"><path fill-rule="evenodd" fill="#74bedf" d="M0,0c-10.7,2.304-34.304,0.355-49.994,1,10.7-2.304,34.304-0.355,49.994-1m-55.993,1c2.465-0.132,4.817-0.151,5.999,1,16.687-1.311,38.631,2.636,51.994-2-17.333-2.331-38.994-0.334-57.993-1-0.776,0.224-1.972,0.028-2,1,0.776,0.224,1.972,0.027,2,1"/></g><g transform="translate(343.9575,256.3066)"><path fill-rule="evenodd" fill="#add8ea" d="m0,0c0.163,1.163-0.221,1.779-1,2v1c2.461,1.554,2.94-3.396,1-3"/></g><g transform="translate(407.9497,257.3066)"><path fill-rule="evenodd" fill="#74bedf" d="M0,0c0.421,2.124-11.486,0.485-15.998,1-0.421-2.124,11.486-0.485,15.998-1m-20.998-1c0.102,2.565,3.727,1.607,5,3h16.998c0.055-1.278,1.282-1.385,1-3h-22.998z"/></g><g transform="translate(415.9487,258.3066)"><path fill-rule="evenodd" fill="#30a5d2" d="M0,0c6.44-0.575,20.518,1.208,21.997-1-6.44,0.575-20.518-1.208-21.997,1"/></g><g transform="translate(342.958,258.3066)"><path fill-rule="evenodd" fill="#74bedf" d="m0,0c0.779-0.221,1.163-0.837,1-2h-3c0.113,1.22,0.299,2.368,2,2"/></g><g transform="translate(440.9458,245.3081)"><path fill-rule="evenodd" fill="#74bedf" d="M0,0c-39.311,2.306-91.65,0.35-133.98,1,39.308-2.306,91.647-0.35,133.98-1m-134.98-1c-0.24,1.427-1.647,1.687-2,3h138.98c1.31-0.016,1.273-2.773,0-3h-136.98z"/></g><g transform="translate(228.9722,239.3091)"><path fill-rule="evenodd" fill="#74bedf" d="M0,0c-27.457,2.292-68.085,0.358-98.988,1,27.457-2.292,68.085-0.359,98.988-1m-102.99-1c0.279,2.054,2.671,1.996,3.999,3h99.991c1.165-0.168,1.085-1.581,1-3h-104.99z"/></g><g transform="translate(438.9458,233.3096)"><path fill-rule="evenodd" fill="#74bedf" d="M0,0c-34.653,2.303-82.328,0.352-119.98,1,34.648-2.303,82.323-0.352,119.98-1m-120.98-1c-0.055,1.278-1.282,1.385-1,3h123.98v-2c0.184-0.85-0.39-0.943-1-1h-121.98z"/></g><g transform="translate(231.9717,233.3096)"><path fill-rule="evenodd" fill="#74bedf" d="M0,0c-32.691,2.301-78.253,0.353-113.98,1,32.686-2.301,78.247-0.353,113.98-1m3,1c-0.092-1.578-0.327-1.899-2-2-34.57-2.07-81.684,1.552-118.98,0-3.288,1.483,2.967,1.556,3,3h115.98c0.81-0.19,0.997-1.003,2-1"/></g><g transform="translate(434.9463,227.3105)"><path fill-rule="evenodd" fill="#74bedf" d="M0,0c-30.778,2.295-74.747,0.357-108.99,1,30.782-2.295,74.751-0.357,108.99-1m2,2c0.282-1.615-0.945-1.722-1-3h-110.99c-0.091,1.576-2.55,0.783-2,3h113.99z"/></g><g transform="translate(244.9702,215.312)"><path fill-rule="evenodd" fill="#74bedf" d="M0,0c-47.415,2.307-108.11,0.349-158.98,1,47.42-2.308,108.11-0.35,158.98-1m1,2c0.055-1.279,1.281-1.385,1-3h-164.98c-0.306,2.306,2.889,1.111,3,3h160.98z"/></g><g transform="translate(372.9541,204.3135)"><path fill-rule="evenodd" fill="#30a5d2" d="M0,0c3.843-1.886-11.739-0.651-15.998-1-3.843,1.886,11.739,0.651,15.998,1"/></g><g transform="translate(366.9551,198.314)"><path fill-rule="evenodd" fill="#30a5d2" d="M0,0c1.031-2.077-10.113-0.519-13.999-1-1.031,2.077,10.113,0.519,13.999,1"/></g><g transform="translate(260.9683,191.3149)"><path fill-rule="evenodd" fill="#74bedf" d="M0,0c-69.436,2.315-152.08,0.345-224.97,1,69.43-2.315,152.08-0.345,224.97-1m1,2c1.165-0.168,1.085-1.581,1-3-70.955,1.268-148.84-1.69-218.97,0-3.484,0.084-9.048-1.91-10.999,2,1.163-0.163,1.779,0.221,2,1h226.97z"/></g><g transform="translate(357.9561,186.3154)"><path fill-rule="evenodd" fill="#74bedf" d="M0,0c-3.695-0.638-9.96,1.295-11.999-1,3.695,0.638,9.961-1.294,11.999,1m1,1c0.043-1.376-0.471-2.196-1-3h-12.999v2c-0.183,0.851,0.391,0.943,1,1h12.999z"/></g><g transform="translate(353.9565,180.3164)"><path fill-rule="evenodd" fill="#30a5d2" d="M0,0c2.173-1.917-7.311-0.631-9.999-1-2.172,1.917,7.311,0.631,9.999,1"/></g><g transform="translate(343.9575,173.3174)"><path fill-rule="evenodd" fill="#74bedf" d="M0,0c1.89,0.204,9.879-0.675,7,1-1.891-0.205-9.879,0.674-7-1m7.999-1c-4.275,0.39-10.917-1.585-10.999,3,3.62-1.047,11.601,2.268,11.999-2-0.85,0.184-0.943-0.39-1-1"/></g><g transform="translate(350.957,174.3169)"><path fill-rule="evenodd" fill="#30a5d2" d="m0,0c2.88-1.674-5.109-0.795-7-1-2.879,1.675,5.11,0.796,7,1"/></g><g transform="translate(269.9668,174.3169)"><path fill-rule="evenodd" fill="#74bedf" d="m0,0c-14.855-3.584-44.522-2-65.992-2h-197.98v1c87.33,0.667,177.32-1.333,262.97,1h-262.97v1h262.97c0.61-0.057,1.184-0.149,1-1"/></g><g transform="translate(269.9668,169.3179)"><path fill-rule="evenodd" fill="#74bedf" d="m0,0c1.165-0.168,1.086-1.581,1-3h-264.97v1c87.66,0.667,177.98-1.333,263.97,1h-263.97v1h263.97z"/></g><g transform="translate(270.9668,163.3184)"><path fill-rule="evenodd" fill="#74bedf" d="m0,0c0.61-0.057,1.184-0.149,1-1-14.87-3.585-44.473-2-65.992-2h-199.98v1c87.99,0.667,178.65-1.333,264.97,1h-264.97v1h264.97z"/></g><g transform="translate(349.957,163.3184)"><path fill-rule="evenodd" fill="#74bedf" d="m0,0c1.165-0.168,1.086-1.581,1-3h-23.997c0.224,0.776,0.027,1.973,1,2,5.345-2.32,14.989-0.342,21.997-1-5.013,2.32-14.321,0.344-20.998,1v1h20.998z"/></g><g transform="translate(271.9668,157.3193)"><path fill-rule="evenodd" fill="#74bedf" d="m0,0c1.165-0.168,1.086-1.581,1-3h-266.97v1c88.33,0.667,179.31-1.333,265.97,1h-265.97v1h265.97z"/></g><g transform="translate(6,151.3198)"><path fill-rule="evenodd" fill="#74bedf" d="m0,0,267.97,0,0-3h-267.97v1c88.656,0.667,179.98-1.333,266.97,1h-266.97v1z"/></g><g transform="translate(296.9639,150.3203)"><path fill-rule="evenodd" fill="#74bedf" d="M0,0m-1,1,4.999,0c0.086-1.419,0.166-2.832-0.999-3h-5c-0.282,1.615,0.945,1.721,1,3"/></g><g transform="translate(296.9639,150.3203)"><path fill-rule="evenodd" fill="#30a5d2" d="M0,0"/></g><g transform="translate(274.9663,145.3208)"><path fill-rule="evenodd" fill="#74bedf" d="m0,0c1.165-0.168,1.086-1.581,1-3h-269.97v1c89.33,0.667,181.31-1.333,268.97,1h-268.97v1h268.97z"/></g><g transform="translate(6,132.3223)"><path fill-rule="evenodd" fill="#30a5d2" d="M0,0c92.321-0.667,187.31,1.333,277.96-1h-277.96v1z"/></g><g transform="translate(357.9561,131.3223)"><path fill-rule="evenodd" fill="#30a5d2" d="M0,0c-22.665,0.666-47.993-1.332-68.991,1h68.991v-1z"/></g><g transform="translate(6,127.3228)"><path fill-rule="evenodd" fill="#74bedf" d="M0,0c117.32-0.667,237.3,1.333,352.96-1h-352.96v1z"/></g><path fill-rule="evenodd" fill="#30a5d2" d="m6,126.32,352.96,0,0-1-352.96,0,0,1z"/><g transform="translate(6,125.3232)"><path fill-rule="evenodd" fill="#74bedf" d="M0,0,352.96,0c-115.66-2.333-235.64-0.333-352.96-1v1z"/></g><g transform="translate(6,121.3237)"><path fill-rule="evenodd" fill="#74bedf" d="M0,0c117.68-1.319,240.13,2.647,353.96-2-115.99-2.333-236.31-0.333-353.96-1v1c117.32,0.667,237.3-1.333,352.96,1h-352.96v1z"/></g><g transform="translate(360.9556,114.3247)"><path fill-rule="evenodd" fill="#74bedf" d="m0,0c-8.282-3.553-29.103-2-43.995-2h-310.96v1c117.66,0.667,237.97-1.333,353.96,1h-353.96v1h353.96c0.61-0.057,1.184-0.15,1-1"/></g><g transform="translate(6,108.3252)"><path fill-rule="evenodd" fill="#30a5d2" d="m0,0,310.96,0c4.542,0,43.258-1.736,43.995-1-2.966-2.965-35.368,0-43.995,0h-310.96v1z"/></g><path fill-rule="evenodd" fill="#74bedf" d="m6,103.33,355.96,0,0-1-355.96,0,0,1z"/><path fill-rule="evenodd" fill="#30a5d2" d="m6,102.33,355.96,0,0-1-355.96,0,0,1z"/><path fill-rule="evenodd" fill="#74bedf" d="m6,101.33,355.96,0,0-1-355.96,0,0,1z"/><g transform="translate(6,97.3267)"><path fill-rule="evenodd" fill="#74bedf" d="M0,0c118.68-1.319,242.12,2.647,356.96-2-116.99-2.333-238.31-0.333-356.96-1v1c118.32,0.667,239.3-1.333,355.96,1h-355.96v1z"/></g><g transform="translate(6,90.3276)"><path fill-rule="evenodd" fill="#30a5d2" d="M0,0c118.65-0.667,239.97,1.333,356.96-1h-356.96v1z"/></g><g transform="translate(6,79.3291)"><path fill-rule="evenodd" fill="#74bedf" d="M0,0c119.34-1.319,243.46,2.647,358.96-2-117.66-2.333-239.64-0.333-358.96-1v1c118.98,0.667,240.64-1.333,357.96,1h-357.96v1z"/></g><g transform="translate(6,72.3296)"><path fill-rule="evenodd" fill="#30a5d2" d="M0,0c119.32-0.667,241.3,1.333,358.96-1h-358.96v1z"/></g><path fill-rule="evenodd" fill="#74bedf" d="m6,67.331,359.96,0,0-1-359.96,0,0,1z"/><path fill-rule="evenodd" fill="#30a5d2" d="m6,66.331,359.96,0,0-1-359.96,0,0,1z"/><path fill-rule="evenodd" fill="#74bedf" d="m6,65.331,359.96,0,0-1-359.96,0,0,1z"/><g transform="translate(365.9551,61.3311)"><path fill-rule="evenodd" fill="#74bedf" d="m0,0c0.61-0.057,1.184-0.149,1-1-8.583-3.554-29.661-2-44.995-2h-315.96v1c119.66,0.667,241.98-1.333,359.96,1h-359.96v1h359.96z"/></g><g transform="translate(366.9551,55.332)"><path fill-rule="evenodd" fill="#74bedf" d="m0,0c1.31-0.016,1.273-2.773,0-3h-360.96v1c119.66,0.667,241.98-1.333,359.96,1h-359.96v1h360.96z"/></g><g transform="translate(6,49.3325)"><path fill-rule="evenodd" fill="#74bedf" d="M0,0c120.34-1.319,245.46,2.647,361.96-2-118.65-2.333-241.64-0.333-361.96-1v1c119.98,0.667,242.64-1.333,360.96,1h-360.96v1z"/></g><g transform="translate(6,42.3335)"><path fill-rule="evenodd" fill="#30a5d2" d="M0,0c120.32-0.667,243.3,1.333,361.96-1h-361.96v1z"/></g><path fill-rule="evenodd" fill="#74bedf" d="m6,37.334,362.96,0,0-1-362.96,0,0,1z"/><path fill-rule="evenodd" fill="#30a5d2" d="m6,36.334,362.96,0,0-1-362.96,0,0,1z"/><path fill-rule="evenodd" fill="#74bedf" d="m6,35.334,362.96,0,0-1-362.96,0,0,1z"/><g transform="translate(368.9546,31.335)"><path fill-rule="evenodd" fill="#74bedf" d="M0,0,1,0c-0.206-0.26,0.268-1.864,0-2-7.657-3.864-30.167-1-43.995-1h-319.96v1c120.66,0.667,243.98-1.333,362.96,1h-362.96v1h362.96z"/></g><g transform="translate(6,24.3359)"><path fill-rule="evenodd" fill="#30a5d2" d="M0,0c120.98-0.667,244.64,1.333,363.96-1h-363.96v1z"/></g><path fill-rule="evenodd" fill="#74bedf" d="m6,19.336,364.96,0,0-1-364.96,0,0,1z"/><path fill-rule="evenodd" fill="#30a5d2" d="m6,18.336,364.96,0,0-1-364.96,0,0,1z"/><path fill-rule="evenodd" fill="#74bedf" d="m6,17.337,364.96,0,0-1-364.96,0,0,1z"/><g transform="translate(6,13.3374)"><path fill-rule="evenodd" fill="#74bedf" d="M0,0c121.68-1.319,248.13,2.647,365.95-2-119.98-2.333-244.3-0.333-365.95-1v1c121.32,0.667,245.3-1.333,364.96,1h-364.96v1z"/></g><g transform="translate(372.9541,6.3379)"><path fill-rule="evenodd" fill="#74bedf" d="m0,0c-8.563-3.554-29.847-2-44.994-2h-321.96v1c121.65,0.667,245.97-1.333,365.95,1h-365.95v1h365.95c0.61-0.057,1.184-0.149,1-1"/></g><g transform="translate(265.9673,523.2734)"><path fill-rule="evenodd" fill="#30a5d2" d="m0,0,17.998,0c0.168-1.165,1.581-1.086,3-1-5.02-1.664-16.978-1.664-21.998,0,0.61,0.057,1.184,0.15,1,1"/></g><g transform="translate(239.9707,516.2744)"><path fill-rule="evenodd" fill="#30a5d2" d="M0,0c27.672-0.659,63.313,1.323,85.989-1-27.672,0.659-63.313-1.322-85.989,1"/></g><g transform="translate(228.9722,510.2754)"><path fill-rule="evenodd" fill="#30a5d2" d="M0,0c32.36-0.646,74.653,1.297,103.99-1-32.364,0.645-74.657-1.298-103.99,1"/></g><g transform="translate(209.9746,504.2759)"><path fill-rule="evenodd" fill="#30a5d2" d="M0,0c42.333-0.65,94.672,1.306,133.98-1-42.33,0.65-94.669-1.306-133.98,1"/></g><g transform="translate(203.9751,498.2764)"><path fill-rule="evenodd" fill="#30a5d2" d="M0,0c55.654-0.654,121.33,1.313,173.98-1-55.66,0.654-121.33-1.312-173.98,1"/></g><g transform="translate(191.9766,486.2783)"><path fill-rule="evenodd" fill="#30a5d2" d="M0,0c65.562-0.654,140.87,1.313,202.98-1-65.57,0.654-140.88-1.313-202.98,1"/></g><g transform="translate(186.9775,480.2788)"><path fill-rule="evenodd" fill="#30a5d2" d="M0,0c67.689-0.656,145.3,1.316,209.97-1-67.69,0.656-145.3-1.316-209.97,1"/></g><g transform="translate(174.979,462.2813)"><path fill-rule="evenodd" fill="#30a5d2" d="M0,0c80.372-0.658,170.62,1.318,247.97-1-80.37,0.658-170.62-1.318-247.97,1"/></g><g transform="translate(171.9795,456.2817)"><path fill-rule="evenodd" fill="#30a5d2" d="M0,0c80.222-0.656,170.2,1.317,246.97-1-80.22,0.657-170.2-1.316-246.97,1"/></g><g transform="translate(166.98,444.2832)"><path fill-rule="evenodd" fill="#30a5d2" d="M0,0c85.679-0.658,181.31,1.319,263.97-1-85.68,0.659-181.31-1.319-263.97,1"/></g><g transform="translate(339.958,432.2847)"><path fill-rule="evenodd" fill="#30a5d2" d="M0,0c3.886-0.481,15.03,1.077,13.999-1-3.886,0.481-15.03-1.077-13.999,1"/></g><g transform="translate(433.9463,432.2847)"><path fill-rule="evenodd" fill="#30a5d2" d="M0,0"/></g><g transform="translate(159.9805,426.2856)"><path fill-rule="evenodd" fill="#30a5d2" d="M0,0c53.027-0.654,115.97,1.312,165.98-1-53.03,0.654-115.97-1.312-165.98,1"/></g><g transform="translate(387.9521,426.2856)"><path fill-rule="evenodd" fill="#30a5d2" d="M0,0c11.003-0.663,24.658,1.328,33.996-1h-33.996v1z"/></g><g transform="translate(390.9517,413.2871)"><path fill-rule="evenodd" fill="#30a5d2" d="M0,0c5.683,1.664,18.314,1.664,23.997,0h-22.997-1z"/></g><g transform="translate(398.9507,408.2881)"><path fill-rule="evenodd" fill="#30a5d2" d="M0,0c4.829-0.528,17.108,1.143,16.998-1-4.829,0.528-17.108-1.144-16.998,1"/></g><g transform="translate(386.9521,396.2891)"><path fill-rule="evenodd" fill="#30a5d2" d="m0,0,9.999,0,2,0c-2.051-1.659-10.948-1.659-12.999,0h1z"/></g><g transform="translate(402.9502,396.2891)"><path fill-rule="evenodd" fill="#30a5d2" d="M0,0c4.512-0.515,16.419,1.125,15.998-1-4.512,0.515-16.419-1.124-15.998,1"/></g><g transform="translate(296.9639,383.291)"><path fill-rule="evenodd" fill="#30a5d2" d="M0,0c-48.662,0.667-99.987-1.333-146.98,1,51.992-0.667,106.65,1.333,156.98-1h-8.999-1z"/></g><g transform="translate(371.9541,384.291)"><path fill-rule="evenodd" fill="#30a5d2" d="M0,0c14.361-0.642,36.623,1.299,45.995-1-14.362,0.641-36.623-1.299-45.995,1"/></g><g transform="translate(307.9624,377.2915)"><path fill-rule="evenodd" fill="#30a5d2" d="M0,0c-2.072,0.595-6.569-1.236-7,1h7v-1z"/></g><g transform="translate(417.9487,377.2915)"><path fill-rule="evenodd" fill="#30a5d2" d="M0,0c-6.754-0.697-6.754,1.697,0,1v-1z"/></g><g transform="translate(297.9634,371.2925)"><path fill-rule="evenodd" fill="#30a5d2" d="M0,0c-48.994,0.667-100.65-1.333-147.98,1h147.98v-1z"/></g><g transform="translate(386.9521,366.293)"><path fill-rule="evenodd" fill="#30a5d2" d="M0,0c2.408-0.325,11.429,0.853,8.999-1-2.408,0.325-11.428-0.853-8.999,1"/></g><g transform="translate(287.9648,359.2939)"><path fill-rule="evenodd" fill="#30a5d2" d="M0,0c-44.995,0.667-92.655-1.333-135.98,1h135.98v-1z"/></g><g transform="translate(308.9619,347.2954)"><path fill-rule="evenodd" fill="#30a5d2" d="M0,0-10.999,0c1.712,2.288,7.633,0.367,10.999,1v-1z"/></g><g transform="translate(158.981,342.2959)"><path fill-rule="evenodd" fill="#30a5d2" d="M0,0c24.342-0.656,56.644,1.32,75.99-1-24.342,0.657-56.643-1.319-75.99,1"/></g><g transform="translate(296.9639,342.2959)"><path fill-rule="evenodd" fill="#30a5d2" d="M0,0"/></g><g transform="translate(434.9463,342.2959)"><path fill-rule="evenodd" fill="#30a5d2" d="M0,0c1.314,0.132,7.234,0.151,4-1-1.315-0.132-7.235-0.151-4,1"/></g><g transform="translate(164.9805,330.2974)"><path fill-rule="evenodd" fill="#30a5d2" d="M0,0c21.012-0.653,49.973,1.316,65.991-1-21.012,0.654-49.973-1.315-65.991,1"/></g><g transform="translate(300.9629,330.2974)"><path fill-rule="evenodd" fill="#30a5d2" d="M0,0c1.314,0.132,7.235,0.152,4-1-1.314-0.131-7.235-0.151-4,1"/></g><g transform="translate(232.9717,323.2983)"><path fill-rule="evenodd" fill="#30a5d2" d="M0,0c-21.665,0.666-45.993-1.332-65.992,1h65.992v-1z"/></g><g transform="translate(171.9795,318.2988)"><path fill-rule="evenodd" fill="#30a5d2" d="M0,0c19.348-0.651,46.637,1.313,60.992-1-19.348,0.652-46.637-1.313-60.992,1"/></g><g transform="translate(432.9468,312.2998)"><path fill-rule="evenodd" fill="#30a5d2" d="M0,0c2.071-0.595,6.568,1.236,6.999-1-2.391,0.609-7.254-1.255-7.999,1h1z"/></g><g transform="translate(429.9468,306.3008)"><path fill-rule="evenodd" fill="#30a5d2" d="M0,0c1.89-0.205,9.879,0.674,7-1-1.891,0.204-9.879-0.674-7,1"/></g><g transform="translate(419.9482,300.3013)"><path fill-rule="evenodd" fill="#30a5d2" d="M0,0c6.344-0.655,15.316,1.318,19.998-1-6.677,0.657-15.985-1.319-20.998,1h1z"/></g><g transform="translate(415.9487,294.3022)"><path fill-rule="evenodd" fill="#30a5d2" d="M0,0c7.092-0.587,21.871,1.225,23.997-1-7.092,0.587-21.871-1.225-23.997,1"/></g><g transform="translate(308.9619,282.3037)"><path fill-rule="evenodd" fill="#30a5d2" d="m0,0c7.537,0.125,1.002-1.738-3-1,0.169,1.165,1.581,1.086,3,1"/></g><g transform="translate(237.9712,275.3047)"><path fill-rule="evenodd" fill="#30a5d2" d="M0,0-58.993,0c17.666,2.331,39.66,0.334,58.993,1v-1z"/></g><g transform="translate(307.9624,276.3042)"><path fill-rule="evenodd" fill="#30a5d2" d="M0,0c1.662-0.119,9.056,0.546,5.999-1-1.662,0.12-9.056-0.546-5.999,1"/></g><g transform="translate(408.9497,276.3042)"><path fill-rule="evenodd" fill="#30a5d2" d="M0,0c8.404-0.605,24.567,1.25,27.997-1-8.404,0.606-24.567-1.25-27.997,1"/></g><g transform="translate(184.9775,270.3052)"><path fill-rule="evenodd" fill="#30a5d2" d="M0,0c15.69-0.645,39.294,1.304,49.994-1-15.69,0.645-39.294-1.304-49.994,1"/></g><g transform="translate(296.9639,270.3052)"><path fill-rule="evenodd" fill="#30a5d2" d="m0,0c8.006-0.659,18.654,1.323,24.997-1h-1c-8.007,0.659-18.655-1.323-24.997,1h1z"/></g><g transform="translate(179.978,258.3066)"><path fill-rule="evenodd" fill="#30a5d2" d="M0,0c15.69-0.645,39.294,1.304,49.994-1-15.69,0.645-39.294-1.304-49.994,1"/></g><g transform="translate(299.9634,258.3066)"><path fill-rule="evenodd" fill="#30a5d2" d="M0,0c5.792-0.56,19.16,1.187,19.998-1-5.792,0.56-19.161-1.187-19.998,1"/></g><g transform="translate(331.9595,257.3066)"><path fill-rule="evenodd" fill="#30a5d2" d="M0,0c-1.758,0.575-5.875-1.208-6,1,2.072-0.595,6.569,1.236,7-1h-1z"/></g><g transform="translate(391.9517,258.3066)"><path fill-rule="evenodd" fill="#30a5d2" d="M0,0c4.512-0.515,16.419,1.124,15.998-1-4.512,0.515-16.419-1.124-15.998,1"/></g><g transform="translate(161.9805,252.3071)"><path fill-rule="evenodd" fill="#30a5d2" d="M0,0c21.678-0.654,51.308,1.317,67.992-1-21.679,0.655-51.308-1.316-67.992,1"/></g><g transform="translate(301.9629,252.3071)"><path fill-rule="evenodd" fill="#30a5d2" d="M0,0c17.685-0.649,43.3,1.31,55.993-1-17.685,0.649-43.3-1.309-55.993,1"/></g><g transform="translate(380.9531,252.3071)"><path fill-rule="evenodd" fill="#30a5d2" d="M0,0c18.683-0.65,45.303,1.312,58.993-1-18.683,0.651-45.303-1.311-58.993,1"/></g><g transform="translate(144.9824,246.3081)"><path fill-rule="evenodd" fill="#30a5d2" d="M0,0c27.006-0.658,61.979,1.322,83.99-1-27.007,0.658-61.979-1.322-83.99,1"/></g><g transform="translate(306.9624,246.3081)"><path fill-rule="evenodd" fill="#30a5d2" d="M0,0c42.333-0.65,94.672,1.306,133.98-1-42.33,0.65-94.669-1.306-133.98,1"/></g><g transform="translate(129.9844,240.3086)"><path fill-rule="evenodd" fill="#30a5d2" d="M0,0c30.903-0.641,71.531,1.293,98.988-1-30.903,0.642-71.531-1.292-98.988,1"/></g><g transform="translate(313.9614,240.3086)"><path fill-rule="evenodd" fill="#30a5d2" d="M0,0c40.221-0.646,90.216,1.301,126.98-1-40.217,0.646-90.212-1.3-126.98,1"/></g><g transform="translate(117.9863,234.3096)"><path fill-rule="evenodd" fill="#30a5d2" d="M0,0c35.732-0.647,81.294,1.301,113.98-1-35.728,0.647-81.289-1.301-113.98,1"/></g><g transform="translate(318.9609,234.3096)"><path fill-rule="evenodd" fill="#30a5d2" d="M0,0c37.657-0.648,85.332,1.303,119.98-1-37.652,0.648-85.327-1.303-119.98,1"/></g><g transform="translate(106.9873,228.3105)"><path fill-rule="evenodd" fill="#30a5d2" d="M0,0c40.857-0.647,91.57,1.301,128.98-1-40.853,0.646-91.566-1.301-128.98,1"/></g><g transform="translate(325.96,228.3105)"><path fill-rule="evenodd" fill="#30a5d2" d="M0,0c34.239-0.643,78.208,1.295,108.99-1-34.242,0.643-78.212-1.295-108.99,1"/></g><g transform="translate(96.9883,222.311)"><path fill-rule="evenodd" fill="#30a5d2" d="M0,0c45.667-0.651,101.33,1.308,143.98-1-45.664,0.651-101.32-1.308-143.98,1"/></g><g transform="translate(334.959,222.311)"><path fill-rule="evenodd" fill="#30a5d2" d="M0,0c29.075-0.643,67.945,1.294,93.988-1-29.075,0.643-67.945-1.294-93.988,1"/></g><g transform="translate(85.9902,216.312)"><path fill-rule="evenodd" fill="#30a5d2" d="M0,0c50.874-0.651,111.56,1.307,158.98-1-50.87,0.65-111.56-1.308-158.98,1"/></g><g transform="translate(344.9575,216.312)"><path fill-rule="evenodd" fill="#30a5d2" d="M0,0c23.343-0.656,54.643,1.318,72.991-1-23.343,0.656-54.643-1.319-72.991,1"/></g><g transform="translate(72.9917,210.3125)"><path fill-rule="evenodd" fill="#30a5d2" d="M0,0c56.882-0.652,123.56,1.31,176.98-1-56.88,0.652-123.56-1.31-176.98,1"/></g><g transform="translate(351.9565,209.3125)"><path fill-rule="evenodd" fill="#30a5d2" d="M0,0c8.675,1.665,24.321,1.665,32.996,0h-31.996-1z"/></g><g transform="translate(60.9932,204.3135)"><path fill-rule="evenodd" fill="#30a5d2" d="M0,0c62.22-0.654,134.21,1.312,192.98-1-62.22,0.653-134.21-1.312-192.98,1"/></g><g transform="translate(47.9946,198.314)"><path fill-rule="evenodd" fill="#30a5d2" d="M0,0c67.689-0.656,145.3,1.316,209.97-1-67.69,0.656-145.3-1.315-209.97,1"/></g><g transform="translate(35.9961,192.3149)"><path fill-rule="evenodd" fill="#30a5d2" d="M0,0c72.891-0.655,155.54,1.315,224.97-1-72.89,0.655-155.53-1.315-224.97,1"/></g><g transform="translate(23.998,186.3154)"><path fill-rule="evenodd" fill="#30a5d2" d="M0,0c77.678-0.657,165.31,1.318,239.97-1-77.68,0.658-165.31-1.318-239.97,1"/></g><g transform="translate(13.999,180.3164)"><path fill-rule="evenodd" fill="#30a5d2" d="M0,0c81.698-0.658,173.29,1.319,251.97-1-81.7,0.658-173.29-1.319-251.97,1"/></g><g transform="translate(328.9595,162.3184)"><path fill-rule="evenodd" fill="#30a5d2" d="M0,0c6.676-0.656,15.984,1.32,20.998-1-7.009,0.658-16.653-1.32-21.998,1h1z"/></g><g transform="translate(321.9604,156.3193)"><path fill-rule="evenodd" fill="#30a5d2" d="M0,0c8.733-0.609,25.239,1.255,28.997-1-8.733,0.609-25.24-1.255-28.997,1"/></g><g transform="translate(315.9614,150.3203)"><path fill-rule="evenodd" fill="#30a5d2" d="M0,0c11.375-0.629,30.604,1.282,36.995-1-11.375,0.629-30.603-1.283-36.995,1"/></g><g transform="translate(299.9634,143.3208)"><path fill-rule="evenodd" fill="#30a5d2" d="M0,0c-2.072,0.595-6.569-1.236-6.999,1h6.999v-1z"/></g><g transform="translate(309.9619,144.3208)"><path fill-rule="evenodd" fill="#30a5d2" d="M0,0c13.697-0.639,35.286,1.296,43.995-1-13.697,0.639-35.286-1.296-43.995,1"/></g><g transform="translate(291.9644,138.3218)"><path fill-rule="evenodd" fill="#30a5d2" d="M0,0c1.662-0.12,9.056,0.546,5.999-1-1.662,0.119-9.056-0.546-5.999,1"/></g><g transform="translate(356.9561,137.3218)"><path fill-rule="evenodd" fill="#30a5d2" d="M0,0c-18.333,0.665-39.326-1.331-55.993,1h55.993v-1z"/></g><g transform="translate(325.96,515.2744)"><path fill-rule="evenodd" fill="#74bedf" d="M0,0c-22.676,2.323-58.317,0.341-85.989,1,22.676-2.322,58.317-0.341,85.989-1m3-1-91.989,0c0.239,1.427,1.647,1.687,2,3h1,86.989c0.239-1.427,1.646-1.687,2-3"/></g><g transform="translate(332.959,509.2754)"><path fill-rule="evenodd" fill="#74bedf" d="M0,0c-29.333,2.297-71.626,0.354-103.99,1,29.337-2.298,71.63-0.355,103.99-1m3-1-112.99,0c-0.003,1.003,0.81,1.19,1,2,1.583,0.083,3.814-0.481,3.999,1h104.99c1.479-0.521,2.52-1.48,4-2,0.184-0.851-0.39-0.943-1-1"/></g><g transform="translate(343.9575,503.2759)"><path fill-rule="evenodd" fill="#74bedf" d="M0,0c-39.311,2.306-91.65,0.35-133.98,1,39.308-2.306,91.647-0.35,133.98-1m0,2c0.804-0.529,1.624-1.043,3-1,0.221-0.779,0.837-1.163,2-1-45.328-2.333-94.988-0.333-141.98-1,0.239,1.427,1.646,1.687,1.999,3h1,133.98z"/></g><g transform="translate(396.9512,479.2788)"><path fill-rule="evenodd" fill="#74bedf" d="M0,0c-64.669,2.316-142.28,0.344-209.97,1,64.67-2.316,142.28-0.344,209.97-1m0,2c0.89-0.777,2.258-1.075,4-1-0.004-1.003,0.809-1.19,1-2h-216.97c-0.281,1.615,0.946,1.722,1,3h210.97z"/></g><g transform="translate(178.9785,467.2803)"><path fill-rule="evenodd" fill="#74bedf" d="M0,0c78.603,0.653,165.91-1.313,238.97,1-78.6-0.652-165.91,1.313-238.97-1m-2-1c-0.043,1.377,0.471,2.196,1,3h240.97c0.239-1.427,1.646-1.687,2-3h-243.97z"/></g><g transform="translate(263.9678,185.3154)"><path fill-rule="evenodd" fill="#74bedf" d="M0,0c-74.663,2.318-162.29,0.343-239.97,1,74.66-2.318,162.29-0.342,239.97-1m2-1c-81.342,1.313-167.48-2.638-244.97,2,1.616-0.282,1.722,0.945,3,1h240.97c1.171-0.162,0.843-1.823,1-3"/></g><g transform="translate(6,130.3228)"><path fill-rule="evenodd" fill="#74bedf" d="M0,0,0,1,277.96,1c-90.65,2.333-185.64,0.333-277.96,1v1h277.96c0.24-1.428,1.647-1.687,2-3h-279.96z"/></g><g transform="translate(169.9795,449.2827)"><path fill-rule="evenodd" fill="#74bedf" d="M0,0c83.94,0.653,176.57-1.315,254.97,1-83.94-0.654-176.58,1.315-254.97-1m-1,2,255.97,0,1,0c0.24-1.427,1.646-1.687,2-3h-259.97c0.157,1.177-0.172,2.838,1,3"/></g><g transform="translate(361.9556,439.2842)"><path fill-rule="evenodd" fill="#74bedf" d="m0,0c3.039-0.627,8.612,1.28,9.999-1-9.884,0.691-9.884-1.691,0-1-1.064-2.27-6.286-0.381-8.999-1h-1v3z"/></g><g transform="translate(389.9521,431.2852)"><path fill-rule="evenodd" fill="#74bedf" d="M0,0c8.381-0.275,24.216-0.578,31.996,1h-20.997c-11.572,0.258-29.866-0.382-10.999-1m-10.999,2c10.786-0.89,28.867,1.146,39.995,0,13.837-1.426-13.222-3-16.997-3h-21.998c-1.171,0.161-0.843,1.823-1,3"/></g><g transform="translate(433.9463,432.2847)"><path fill-rule="evenodd" fill="#74bedf" d="m0,0m-3-1c-4.059,2.697,9.107,3.572,8,0-0.125-2.208-4.242-0.424-6-1-0.81,0.19-0.996,1.003-2,1"/></g><g transform="translate(340.958,427.2852)"><path fill-rule="evenodd" fill="#74bedf" d="m0,0,10.999,0c-0.224-0.775-0.028-1.972-1-2-7.147,3.089-13.805-1.188-1,0v-0.999h-7.999c-2.46-1.555-2.94,3.395-1,2.999"/></g><g transform="translate(316.9609,408.2881)"><path fill-rule="evenodd" fill="#74bedf" d="m0,0-81.99,0-40.994,0-20.998,0c-6.343-0.656-15.316,1.318-19.997-1,54.33,0.666,111.32-1.333,163.98,1m0-2c-49.83,1.097-105.1-1.452-155.98,0,3.412-0.098-9.962-0.904-8.999,2,0.923,2.783,32.695,1,39.995,1h125.98c-0.156-1.177,0.172-2.839-1-3"/></g><g transform="translate(418.9482,402.2886)"><path fill-rule="evenodd" fill="#74bedf" d="M0,0c-5.348-0.651-13.311,1.313-16.998-1,5.348,0.652,13.311-1.313,16.998,1m-17.998,1,17.998,0c1.165-0.168,1.086-1.581,1-3h-17.998c-0.85-0.184-0.943,0.39-1,1v2z"/></g><g transform="translate(387.9521,397.2891)"><path fill-rule="evenodd" fill="#74bedf" d="m0,0,7.999,0,1,0,0-1h-9.999c-0.184,0.851,0.39,0.943,1,1"/></g><g transform="translate(397.9512,372.2925)"><path fill-rule="evenodd" fill="#74bedf" d="M0,0c-4.024-0.642-10.632,1.3-12.999-1,4.025,0.642,10.633-1.3,12.999,1m-13.999,1,14.999,0,0-3-1,0-12.999,0c-1.171,0.162-0.843,1.823-1,3"/></g><g transform="translate(308.9619,366.293)"><path fill-rule="evenodd" fill="#74bedf" d="M0,0c-1.758-0.575-5.875,1.208-5.999-1,1.758,0.576,5.874-1.208,5.999,1m1-2c-9.621-1.978-9.621,4.978,0,3v-3z"/></g><g transform="translate(290.9644,354.2944)"><path fill-rule="evenodd" fill="#74bedf" d="m0,0c-8.841,0.693-8.841-1.692,0-1h4,13.998c-2.696,2.304-9.644,0.355-13.998,1h-4zm17.998-2c-8.408,1.258-21.895-2.564-26.997,2,0.431,2.236,4.928,0.405,6.999,1h2,18.998c0.085-1.419,0.165-2.832-1-3"/></g><g transform="translate(296.9639,349.2954)"><path fill-rule="evenodd" fill="#74bedf" d="m0,0,11.998,0,0-1c-3.366-0.633-9.287,1.288-10.998-1h10.998v-1h-10.998c-1.172,0.162-0.844,1.823-1,3"/></g><g transform="translate(441.9453,335.2969)"><path fill-rule="evenodd" fill="#74bedf" d="M0,0c1.314-0.132,7.235-0.151,4,1-1.315,0.132-7.235,0.151-4-1m-3,2,8,0c0.055-1.278,1.281-1.385,1-3h-7c-0.888,0.294-4.377,2.706-2,3"/></g><g transform="translate(175.9785,288.3027)"><path fill-rule="evenodd" fill="#74bedf" d="m0,0c18,2.332,40.327,0.335,59.993,1,0.85,0.184,0.943-0.39,1-1-16.021-3.979-43.31-2.014-60.993-1h59.993c-18,2.332-40.327,0.335-59.993,1"/></g><g transform="translate(175.9785,283.3032)"><path fill-rule="evenodd" fill="#74bedf" d="M0,0c20.014-1.316,45.306,2.645,61.993-2-18.666-2.331-41.66-0.334-61.993-1v1h60.993c-18.333,2.332-40.994,0.335-60.993,1v1z"/></g><g transform="translate(305.9624,281.3037)"><path fill-rule="evenodd" fill="#74bedf" d="M0,0c4.002-0.738,10.536,1.125,3,1v1h3.999c0.89-0.443,1.789-0.878,2-2-1.078-1.655-8.92-1.655-9.999,0h1z"/></g><g transform="translate(177.9785,277.3042)"><path fill-rule="evenodd" fill="#74bedf" d="M0,0c19.666-0.665,41.993,1.332,59.993-1-19.333-0.665-41.327,1.332-58.993-1h58.993c-17.667-2.331-39.661-0.334-58.993-1-0.851-0.184-0.943,0.39-1,1v2z"/></g><g transform="translate(297.9634,271.3047)"><path fill-rule="evenodd" fill="#74bedf" d="m0,0,24.997,0c0.163-1.162-0.221-1.779-1-2-6.342,2.324-16.99,0.341-24.997,1v1h1z"/></g><g transform="translate(427.9473,271.3047)"><path fill-rule="evenodd" fill="#74bedf" d="m0,0h9.999v-1c-10.927,0.691-10.927-1.69,0-1v-1h-10.999c0.157,1.177-0.172,2.839,1,3"/></g><g transform="translate(301.9629,263.3062)"><path fill-rule="evenodd" fill="#74bedf" d="M0,0c5.469,0.55,18.479-1.174,18.998,1-5.469-0.551-18.478,1.174-18.998-1m-3,2,22.998,0c0.85,0.184,0.943-0.391,1-1-3.48-4.52-15.225-0.774-21.998-2h-1c0.043,1.376-0.47,2.195-1,3"/></g><g transform="translate(357.9561,251.3076)"><path fill-rule="evenodd" fill="#74bedf" d="M0,0c-12.693,2.309-38.308,0.351-55.993,1,12.693-2.31,38.308-0.352,55.993-1m-57.993,2c15.455-0.748,37.779,0.968,53.993,0-3.498,0.208,6.955,0.879,6-2-1.079-3.251-24.354-1-28.997-1h-29.996c-0.85-0.184-0.943,0.39-1,1v2z"/></g><g transform="translate(440.9458,239.3091)"><path fill-rule="evenodd" fill="#74bedf" d="M0,0c-36.769,2.3-86.763,0.354-126.98,1,36.764-2.301,86.759-0.354,126.98-1m-129.98,2c39.753-1.257,97.501,2.542,131.98-2,0.184-0.851-0.391-0.943-1-1h-128.98c-0.091,1.576-2.55,0.783-2,3"/></g><g transform="translate(428.9473,221.311)"><path fill-rule="evenodd" fill="#74bedf" d="M0,0c-26.043,2.294-64.913,0.357-93.988,1,26.043-2.294,64.913-0.357,93.988-1m-97.988,2,100.99,0c2.377-0.294-1.112-2.706-2-3h-95.988c-0.168,1.165-1.581,1.086-3,1v2z"/></g><g transform="translate(417.9487,215.312)"><path fill-rule="evenodd" fill="#74bedf" d="M0,0c-18.348,2.318-49.648,0.344-72.991,1,18.348-2.319,49.648-0.344,72.991-1m-76.991,2,80.991,0c1.208-0.212,0.614-1.11,0-2-1.42,0.086-2.832,0.165-3-1h-74.991c0.396,2.396-4.554-0.555-3,3"/></g><g transform="translate(356.9561,203.3135)"><path fill-rule="evenodd" fill="#74bedf" d="M0,0c4.259,0.349,19.841-0.886,15.998,1-4.259-0.349-19.841,0.886-15.998-1m-5,2,23.998,0c0.044-1.71-0.743-2.59-2-3h-19.998c-0.185,0.997-4.38,2.703-2,3"/></g><g transform="translate(265.9673,179.3164)"><path fill-rule="evenodd" fill="#74bedf" d="M0,0c-78.678,2.319-170.27,0.342-251.97,1,78.68-2.319,170.27-0.342,251.97-1m1,2c1.165-0.168,1.086-1.581,1-3-80.111,1.296-179.2-2.61-256.97,2,0.776,0.224,1.972,0.027,2,1h1,252.97z"/></g><g transform="translate(350.957,155.3193)"><path fill-rule="evenodd" fill="#74bedf" d="M0,0c-3.757,2.255-20.264,0.391-28.997,1,3.758-2.255,20.264-0.391,28.997-1m-28.997,2c9.725-1.274,24.584,2.586,30.997-2-8.388-1.044-26.259-2.936-32.996,1,0.809,0.19,0.996,1.003,1.999,1"/></g><g transform="translate(353.9565,143.3208)"><path fill-rule="evenodd" fill="#74bedf" d="M0,0c-8.709,2.296-30.297,0.361-43.995,1,8.709-2.296,30.298-0.361,43.995-1m-43.995,2c14.694-1.305,34.624,2.627,45.995-2-14.334-2.33-32.994-0.335-48.994-1,0.239,1.427,1.646,1.687,1.999,3h1z"/></g><g transform="translate(153.9814,414.2871)"><path fill-rule="evenodd" fill="#30a5d2" d="M0,0c54.993-0.667,112.65,1.333,165.98-1h-165.98v1z"/></g><g transform="translate(148.9824,378.2915)"><path fill-rule="evenodd" fill="#30a5d2" d="M0,0c48.327-0.667,99.32,1.333,145.98-1h-145.98v1z"/></g><g transform="translate(175.9785,288.3027)"><path fill-rule="evenodd" fill="#30a5d2" d="M0,0c19.666-0.665,41.993,1.332,59.993-1h-59.993v1z"/></g><g transform="translate(175.9785,282.3037)"><path fill-rule="evenodd" fill="#30a5d2" d="M0,0c19.999-0.666,42.66,1.331,60.993-1h-60.993v1z"/></g></g><g opacity="0.37999998" clip-path="url(#clipPath4581)"><g transform="translate(445.9399,327.0298)"><path fill-rule="evenodd" fill="#FFF" d="m0,0c-1.04-10.29-11.17-8.31-12.99-16-0.64-2.69,1.83-9.62,2-14.99,0.36-11.88-4.81-22.64-4-30,0.67-6.21,5.31-8.54,6-15,2.08-19.59-14.27-32.88-29-35-6.01-0.86-12.82,1.02-19,0-20.21-3.31-33.43-22.55-41.99-36.99-3.16-5.32-5.17-11.77-10-17,12.03-12.82,13.4-31.39,16-54.99,3.7-33.76,8.07-76.47,8.99-106.99h-361.95v141.98c38.59,36.69,75.26,77.86,127.98,98.99,17.57,7.04,36.48,11.78,54,22-1.69,9.18-10.42,11.79-12,20-1.41,7.3,2.88,14.52,2,21.99-1.36,11.5-13.06,21.93-18,32-5.16,10.51-9.88,24.28-11,38.99-2.09,27.63,6.09,43.05,13,61,8.03,20.85,14.32,36.09,28,50.99,6.44,7.02,12.9,16.06,19.99,20,4.93,2.73,11.9,2.76,18,5,6.63,2.43,11.2,7.89,16,9,2.53,0.58,6.18-1.31,9-1,5.73,0.61,11.67,4.51,17,5,7.14,0.65,13.66-0.8,20.99-2,5.44-0.9,13.33-3.68,20-3,6.31,0.64,4.6,2.18,12,5,9.41-17.59,30.12-23.88,56.99-24-4.56-11.29,11.52-9.53,18-13,1.06-3.73-3.75-1.58-3-5,17.97-4.03,29.51-14.48,36-29.99h-0.69c-2.18,1.23-3.88,2.45-5.28,3.77-0.6,0.57-1.55,0.54-2.12-0.06s-0.54-1.55,0.06-2.12c1.45-1.37,3.14-2.61,5.25-3.84,5.02-5.82,10.5-11.19,11.78-20.75-7.52-0.52-7.85,6.15-16,5-2.64-3.7,0.64-13.31-2-17-1.13-3.58-6.6,1.85-7-1,3.14-9.5,7.02-15.46,7-22-0.03-8.93-5.65-17.57-4-26.99,3.35-19.14,35.88-23.41,33.99-42"/></g></g><g clip-path="url(#clipPath4597)"><g transform="translate(431.9458,322.9595)"><path fill-rule="evenodd" fill="#09C" d="M0,0c-0.036-3.297-2.843-3.822-5.999-4-0.667,4,2.646,4.021,5.999,4"/></g><g transform="translate(310.9609,306.9614)"><path fill-rule="evenodd" fill="#09C" d="M0,0c3.8,2.777,4.678-5.498,3-8.999-6.514-0.323,0.624,6.79-3,8.999"/></g><g transform="translate(320.96,275.9653)"><path fill-rule="evenodd" fill="#09C" d="M0,0c3.921,0.362,2.058-7.974-1-6.999-2.255,2.239,0.065,5.01,1,6.999"/></g><g transform="translate(315.9604,256.9678)"><path fill-rule="evenodd" fill="#09C" d="M0,0c0.272,2.061,4.428,0.238,4,3-1.353,0.314-1.91,1.423-4,1,0.956-1.863-2.995-3.342,0-4m87.989,3c3.982-0.387,6.49,4.007,9.999,1,1.022,6.643,6.78,8.551,7.999,14.998-12.821,1.485-14.672-7.996-18.001-15.998m-120.98,96.987c4.963,1.535,4.317,9.286,1,11.999-1.444-3.323-2.886-8.189-1-11.999m12.998,8.999c0.14,8.472-0.731,15.933-4.999,19.998-2.885-4.326,1.924-15.283,4.999-19.998m80.991,16.998c-3.142-2.353-12.247-0.945-13.999,2,5.864,9.541,16.451,18.313,32.996,13.998-0.063,9.935-7.023,12.975-11.998,17.998,2.304,4.824,2.57,10.501-4,10.999-0.633-3.367,1.288-9.288-1-10.999-4.076,8.589-4.466,20.864-11.998,25.997-1.957-5.043-2.087-11.912-9.999-10.999-0.277,5.39-0.555,10.777-4.999,11.999,0.524-10.524-4.926-15.073-10.999-18.998-1.233,1.434-3.438,1.894-5.999,2,1.076,6.409-3.84,6.825-4.999,10.998-9.87-9.128-14.875-23.121-21.998-34.995,7.585-1.919,3.716,7.615,9.999,6.999-2.906-10.092-7.337-18.66-12.999-25.997-2.274,0.724-0.297,5.702-3.999,4.999,1.422-10.243,2.676-20.654,5.999-28.996-6.246-3.241-2.372-12.562-2-15.998-3.629-1.218-7.893,1.999-8.999,0,1.915-6.752,5.712-11.62,8.999-16.998-2.822-0.102-4.246-3.768-6.999-1,0.176-6.156,7.374-5.291,7.999-10.998-3.725,1.058-3.227-2.105-4.999-3-0.267-3.65,3.987-7.945,1.999-9.999-5.9,1.428-5.373,12.465-6.999,19.998-1.824,8.455-4.695,17.012-6.999,22.997,0.933,1.067,3.689,0.311,3,3-0.765,3.568-2.578,6.087-4.999,7.999-2.342-1.991-8.295-0.372-9.999-3-2.205,1.462,0.587,7.92-3,7.999-3.218-4.447-5.104-10.227-9.999-12.998-13.133,9.683-32.092,2.637-36.995-9.999-2.205-24.538,15.962-34.029,20.998-47.994-6.732,4.933-10.854,12.477-18.998,15.998-0.005-13.619,7.152-28.811-1-38.995,1.22-0.114,2.367-0.299,2-2-0.681-1.985-3.045-2.288-4-3.999,0.354-6.354-0.999-11-1.999-15.999,8.525-17.752,23.137-31.676,32.995-50.993,9.527-18.667,5.87-48.06,24.997-59.993,4.039,8.294,3.723,20.941,13.998,22.997-1.399-4.932-1.6-11.065-2.999-15.997,16.192,6.805,21.091,24.902,39.995,28.996-1.629,4.962,3.478,3.187,3,6.999-1.177,0.157-2.839-0.172-3,1,5.504,9.16,10.002,19.327,14.998,28.996-5.803-0.433-0.416,2.113,0,4-21.664,13.331-44.233,25.758-55.993,48.994,0.167,2.832,1.832,4.166,2,6.999-3.108,0.892-6.97,1.029-6.999,4.999,4.497,1.169,7.442,3.89,12.998,4,0.701,4.367-1.701,5.631-1,9.998,5.853,1.165,6.668,4.949,9.999,2,0.897-0.795,1.093-9.701,1.999-11.998,2.829-0.172,6.86,0.86,7-2-0.744-2.923-5.398-1.935-5-5.999,4.396,2.789,2.611-3.189,6-4,1.028,3.304,5.293,3.372,8.999,4-3.814-3.122,0.385-3.284,2-5.999-1.893-2.108-5.755-2.245-7-5,6.877-3.388,10.069,3.342,14.998,5,0.016-2.652-0.555-5.888,2-6,2.687,8.308,9.679-3.818,11.999,3,2.431-1.901,1.802-6.863,4.999-8,2.863,1.554-2.083,4.667,1,6,3.42,0.087,0.579-6.087,3.999-6,0.371,5.834,5.607,3.336,8.999,2,6.178,8.154,20.082,8.582,27.997,14.999,3.852,17.145,6.746,35.248,22.997,39.995,0.851,10.48,13.436,9.227,19.997,13.998v9.999c-16.693,11.303-29.223,26.77-35.995,47.993-3.666,0-4.035,6.598-7.701,6.598,0,0-18.154-1.244-21.295-3.598m-115.99,142.98,15.998,0c10.986-0.672,30.317-10.536,36.995,0h3c9.368-17.628,30.272-23.721,56.993-23.997,0.489-3.156-1.802-3.531-1-6.999,5.759-2.906,14.135-3.195,18.998-6.999,0.296-2.629-3.88-0.787-3-3.999,17.967-4.03,29.631-14.365,35.995-29.997-4.903-0.865-6.652,6.629-10.998,3,9.243-5.093,19.417-14.572,18.997-25.997-5.998-0.08-9.159,7.159-14.998,4-2.605-3.728,0.454-13.119-1.999-16.998-3.16-1.378-6.035,2.475-7,0,14.556-15.542-4.251-41.003,7-57.993,8.166-12.332,22.914-11.837,29.996-27.996v-7.999h-1c-1.349-6.984-10.458-6.207-11.999-12.999,7.941-16.401-3.416-30.617-1.999-44.994,0.772-7.841,7.392-12.376,5.999-22.998-1.548-11.801-13.047-23.073-24.997-25.996-7.852-1.921-15.739,0.238-22.997-1-25.353-4.325-35.423-25.789-44.994-46.994,14.604-45.722,15.518-113.8,23.997-168.98h-367.95v178.98c58.785,29.87,112.48,64.827,180.98,84.989-2.007,9.772-9.688,11.173-10.999,20.998-0.834,6.257,2.816,12.837,2,19.997-1.046,9.18-11.279,20.954-15.998,29.996-9.079,17.397-18.336,41.848-11.999,69.991,7.14,31.704,26.434,70.032,45.995,89.989,4.96,5.061,9.097,11.172,14.998,13.998,10.649,5.101,22.388,3.019,31.996,12.999,8.926-2.728,17.118,1.597,23.997,3.999"/></g><g transform="translate(386.3462,372.8125)"><path fill-rule="evenodd" fill="#09C" d="m0,0c0-2.902-0.624-5.254-1.393-5.254s-1.393,2.352-1.393,5.254,0.624,5.255,1.393,5.255,1.393-2.353,1.393-5.255"/></g></g></g></g></svg>
